<svg width="16" height="11" viewBox="0 0 16 11" fill="none" xmlns="http://www.w3.org/2000/svg">
<path d="M14.9563 6.78603C14.838 5.02174 14.0537 3.36832 12.7622 2.16053C11.4707 0.952743 9.7685 0.280823 8.0003 0.280823C6.232 0.280823 4.5298 0.952743 3.2383 2.16053C1.9469 3.36832 1.1626 5.02174 1.0443 6.78603L0.848201 9.70637C0.839901 9.82887 0.866201 9.95127 0.924101 10.0596C0.981901 10.168 1.069 10.2579 1.1754 10.3192C1.2819 10.3805 1.4033 10.4107 1.5261 10.4063C1.6488 10.402 1.7679 10.3633 1.8697 10.2947C2.0328 10.1845 2.225 10.1254 2.4219 10.125H2.75C4.3528 10.125 5.2397 8.84647 5.6711 7.92487C7.9083 9.42607 10.5567 10.1949 13.25 10.125H13.5781C13.7751 10.1254 13.9674 10.1845 14.1306 10.2948C14.2324 10.3635 14.3515 10.4021 14.4742 10.4065C14.5969 10.4108 14.7184 10.3806 14.8248 10.3193C14.9313 10.258 15.0183 10.1681 15.0762 10.0598C15.134 9.95137 15.1603 9.82897 15.1521 9.70647L14.9563 6.78603Z" fill="#E19F09"/>
</svg>
