<svg width="8" height="8" viewBox="0 0 8 8" fill="none" xmlns="http://www.w3.org/2000/svg">
<path d="M7.68269 4.12978L4.40149 0.848577C4.33529 0.781577 4.25529 0.729776 4.16709 0.696876C4.07889 0.663976 3.98459 0.650577 3.89069 0.657777C3.79689 0.664477 3.70569 0.691176 3.62319 0.736276C3.54069 0.781276 3.46879 0.843477 3.41249 0.918777C2.70359 1.86418 1.86369 2.70378 0.918192 3.41248C0.843092 3.46898 0.781093 3.54098 0.736193 3.62348C0.691293 3.70608 0.664594 3.79728 0.657994 3.89098C0.651394 3.98478 0.664993 4.07878 0.697793 4.16688C0.730593 4.25488 0.781993 4.33488 0.848393 4.40138L4.12959 7.68258C4.19059 7.74358 4.26289 7.79188 4.34249 7.82488C4.42209 7.85788 4.50739 7.87488 4.59359 7.87488C4.67979 7.87488 4.76509 7.85788 4.84469 7.82488C4.92429 7.79188 4.99669 7.74358 5.05759 7.68258L7.68259 5.05758C7.74349 4.99668 7.79189 4.92438 7.82489 4.84478C7.85789 4.76518 7.87489 4.67988 7.87489 4.59368C7.87489 4.50758 7.85789 4.42228 7.82499 4.34258C7.79199 4.26298 7.74359 4.19068 7.68269 4.12978Z" fill="#E4B03A"/>
</svg>
