<svg width="14" height="19" viewBox="0 0 14 19" fill="none" xmlns="http://www.w3.org/2000/svg">
<path d="M13.3638 5.30461C13.0775 4.15381 12.4814 3.10341 11.6401 2.26751C10.7988 1.43171 9.7446 0.842309 8.5919 0.563509C7.6176 0.324709 6.6017 0.310809 5.6211 0.522709C4.6406 0.734709 3.7212 1.16701 2.9324 1.78691C2.1438 2.40941 1.5088 3.20471 1.0763 4.11151C0.6438 5.01831 0.425401 6.01241 0.438001 7.01701C0.450601 8.02161 0.693701 9.00991 1.1488 9.90561C1.6038 10.8013 2.2586 11.5805 3.0625 12.183V14.8125C3.0625 15.8568 3.4773 16.8583 4.2158 17.5967C4.9542 18.3352 5.9557 18.75 7 18.75C8.0443 18.75 9.0458 18.3352 9.7842 17.5967C10.5227 16.8583 10.9375 15.8568 10.9375 14.8125V12.1844C11.9762 11.4054 12.7609 10.3364 13.1927 9.11201C13.6245 7.88761 13.684 6.56281 13.3638 5.30461Z" fill="#E19F09"/>
</svg>
