<svg width="19" height="19" viewBox="0 0 19 19" fill="none" xmlns="http://www.w3.org/2000/svg">
<path d="M17.0641 10.8862L6.9952 0.817291C6.8698 0.698691 6.7038 0.63269 6.5312 0.63269C6.3587 0.63269 6.1927 0.698691 6.0673 0.817291L0.817301 6.06729C0.756301 6.12819 0.7079 6.20049 0.6749 6.28009C0.642 6.35969 0.625 6.44509 0.625 6.53119C0.625 6.61739 0.642 6.70279 0.6749 6.78239C0.7079 6.86199 0.756301 6.93429 0.817301 6.99519L10.8859 17.0641C11.7064 17.8775 12.8156 18.3328 13.971 18.3304C15.1263 18.3279 16.2337 17.8679 17.0507 17.051C17.8676 16.234 18.3277 15.1267 18.3302 13.9714C18.3327 12.816 17.8775 11.7067 17.0641 10.8862Z" fill="#E4B03A"/>
</svg>
