<svg width="13" height="9" viewBox="0 0 13 9" fill="none" xmlns="http://www.w3.org/2000/svg">
<path d="M11.375 0.90625H9.4062C9.2322 0.90625 9.0653 0.97539 8.9422 1.09846C8.8191 1.22153 8.75 1.38845 8.75 1.5625C8.75 1.73655 8.8191 1.90347 8.9422 2.02654C9.0653 2.14961 9.2322 2.21875 9.4062 2.21875H9.773C8.2356 3.85006 4.8943 6.8125 0.875 6.8125C0.70095 6.8125 0.53403 6.8816 0.41096 7.0047C0.28789 7.1278 0.21875 7.2947 0.21875 7.4688C0.21875 7.6428 0.28789 7.8097 0.41096 7.9328C0.53403 8.0559 0.70095 8.125 0.875 8.125C5.4061 8.125 9.0353 4.93228 10.7188 3.13842V3.53125C10.7188 3.7053 10.7879 3.87222 10.911 3.99529C11.034 4.11836 11.201 4.1875 11.375 4.1875C11.549 4.1875 11.716 4.11836 11.839 3.99529C11.9621 3.87222 12.0312 3.7053 12.0312 3.53125V1.5625C12.0312 1.38845 11.9621 1.22153 11.839 1.09846C11.716 0.97539 11.549 0.90625 11.375 0.90625Z" fill="#E4B03A"/>
</svg>
