<svg width="20" height="16" viewBox="0 0 20 16" fill="none" xmlns="http://www.w3.org/2000/svg">
<path d="M17.875 15.75H2.125C1.7769 15.75 1.4431 15.6117 1.1969 15.3656C0.9508 15.1194 0.8125 14.7856 0.8125 14.4375V9.1875C0.8125 6.75082 1.7805 4.41395 3.5035 2.69096C5.2264 0.967966 7.5633 0 10 0C12.4367 0 14.7736 0.967966 16.4965 2.69096C18.2195 4.41395 19.1875 6.75082 19.1875 9.1875V14.4375C19.1875 14.7856 19.0492 15.1194 18.8031 15.3656C18.5569 15.6117 18.2231 15.75 17.875 15.75ZM3.4375 13.125H16.5625V9.1875C16.5625 7.44702 15.8711 5.77782 14.6404 4.54711C13.4097 3.3164 11.7405 2.625 10 2.625C8.2595 2.625 6.5903 3.3164 5.3596 4.54711C4.1289 5.77782 3.4375 7.44702 3.4375 9.1875V13.125Z" fill="#E19F09"/>
</svg>
