<svg width="28" height="17" viewBox="0 0 28 17" fill="none" xmlns="http://www.w3.org/2000/svg">
<path d="M27.7812 8.3056V16.0625C27.7807 16.2364 27.7114 16.403 27.5885 16.526C27.4655 16.6489 27.2989 16.7182 27.125 16.7187H0.874999C0.701109 16.7182 0.534479 16.6489 0.411519 16.526C0.288549 16.403 0.219249 16.2364 0.218749 16.0625V8.3056C0.214879 6.9641 0.58654 5.6483 1.29168 4.5071C1.99682 3.3659 3.0073 2.4448 4.2087 1.8481L7.1422 0.384705H20.8578L23.7912 1.8481C24.9927 2.4448 26.0032 3.3659 26.7083 4.5071C27.4135 5.6483 27.7851 6.9641 27.7812 8.3056Z" fill="#E6ECFF"/>
</svg>
