<svg width="44" height="44" viewBox="0 0 44 44" fill="none" xmlns="http://www.w3.org/2000/svg">
<path fill-rule="evenodd" clip-rule="evenodd" d="M29.788 7.392C27.7335 5.33851 24.9595 4.16659 22.055 4.125H21.945C19.04 4.16484 16.2652 5.33655 14.2109 7.39088C12.1565 9.44521 10.9848 12.22 10.945 15.125C10.9092 17.1875 11.4895 19.2143 12.6115 20.9468L21.2685 38.5H22.7342L31.3885 20.9468C32.5132 19.2143 33.0935 17.1875 33.055 15.125C33.0134 12.2205 31.8415 9.44653 29.788 7.392ZM21.7937 6.875L22.0192 6.9025L22.2227 6.875C24.3831 6.96909 26.4252 7.88718 27.9295 9.44055C29.4338 10.9939 30.2858 13.0645 30.3105 15.2268C30.3315 16.7613 29.8835 18.2657 29.0262 19.5388L28.9712 19.6322L28.9245 19.7285L22 33.7673L15.0782 19.7422L15.0315 19.635L14.9765 19.5415C14.1193 18.2685 13.6712 16.7641 13.6922 15.2295C13.7157 13.0648 14.5687 10.9916 16.0755 9.43717C17.5823 7.88279 19.628 6.96572 21.791 6.875H21.7937ZM23.4767 12.8398C23.1765 12.639 22.8396 12.4993 22.4853 12.4287C22.131 12.3581 21.7663 12.358 21.412 12.4283C21.0577 12.4987 20.7207 12.6381 20.4203 12.8387C20.1199 13.0393 19.8619 13.2971 19.6611 13.5974C19.4603 13.8977 19.3206 14.2346 19.2501 14.5888C19.1795 14.9431 19.1793 15.3078 19.2497 15.6621C19.32 16.0164 19.4595 16.3534 19.6601 16.6538C19.8607 16.9542 20.1185 17.2122 20.4187 17.413C21.0252 17.8185 21.7679 17.9665 22.4835 17.8244C23.199 17.6823 23.8289 17.2618 24.2344 16.6554C24.6399 16.0489 24.7879 15.3062 24.6458 14.5907C24.5037 13.8751 24.0832 13.2453 23.4767 12.8398ZM18.8925 10.5517C19.4925 10.13 20.1709 9.83245 20.8876 9.67671C21.6043 9.52097 22.3449 9.51016 23.0659 9.64491C23.7868 9.77966 24.4736 10.0572 25.0857 10.4613C25.6977 10.8654 26.2228 11.3879 26.63 11.9979C27.0372 12.6079 27.3182 13.2933 27.4566 14.0135C27.595 14.7338 27.588 15.4745 27.4358 16.192C27.2837 16.9095 26.9896 17.5893 26.5709 18.1914C26.1521 18.7936 25.6172 19.3059 24.9975 19.6983C23.7845 20.4662 22.3192 20.7295 20.9147 20.4317C19.5103 20.1339 18.2779 19.2988 17.4808 18.1047C16.6838 16.9105 16.3853 15.4521 16.649 14.0408C16.9128 12.6296 17.718 11.3774 18.8925 10.5517Z" fill="#FFC000"/>
</svg>
