<svg width="77" height="22" viewBox="0 0 77 22" fill="none" xmlns="http://www.w3.org/2000/svg">
<g clip-path="url(#clip0_31_267)">
<mask id="mask0_31_267" style="mask-type:luminance" maskUnits="userSpaceOnUse" x="0" y="0" width="77" height="22">
<path d="M76.487 0.857788H0.90271V21.1024H76.487V0.857788Z" fill="white"/>
</mask>
<g mask="url(#mask0_31_267)">
<path fill-rule="evenodd" clip-rule="evenodd" d="M60.9139 1.52157H67.0936L66.3626 5.11342C68.2531 2.17272 70.4166 1.30732 73.0842 1.12667C74.1046 1.11935 75.1237 1.20088 76.1299 1.37033L74.941 6.08805C73.9877 5.83364 73.0077 5.69263 72.0213 5.66795C68.3665 5.60493 65.6526 8.07091 64.7116 11.6039L62.5775 19.7035H56.1626C57.7464 13.6456 59.8469 7.03747 60.9139 1.52577V1.52157Z" fill="#E4B03A"/>
<path fill-rule="evenodd" clip-rule="evenodd" d="M43.3327 9.59587C44.3998 9.07915 48.1134 9.13376 50.5206 8.83129C53.2891 8.49521 57.1582 6.97025 57.0658 4.6555C56.9145 2.18952 54.7216 1.63079 52.6799 1.90385C47.874 2.60542 44.7358 5.75616 43.3327 9.59587ZM42.7362 11.167C42.5803 12.1771 42.5254 13.2002 42.5723 14.2212C42.9672 17.2333 45.6097 18.6448 48.4537 18.7372C50.8147 18.7918 53.6882 17.3803 55.2509 15.6243C55.2997 15.5562 55.3647 15.5014 55.4401 15.465C55.5155 15.4286 55.5989 15.4117 55.6825 15.4158C55.7661 15.42 55.8474 15.4451 55.9188 15.4889C55.9902 15.5327 56.0494 15.5937 56.0911 15.6663C56.1569 15.7909 56.1874 15.9312 56.1792 16.0718C56.1711 16.2125 56.1246 16.3483 56.0449 16.4645C53.5747 18.9221 51.0499 20.279 47.5337 20.3084C43.547 20.3378 38.552 18.817 37.9428 14.6749C37.855 14.1415 37.8437 13.5983 37.9092 13.0617C38.7116 5.39067 45.7105 1.24429 52.5959 0.878807C55.8853 0.698165 60.6324 1.55097 60.3593 5.11341C60.0863 8.86069 54.4233 10.1546 50.7349 10.2596C47.6303 10.352 43.8074 10.3394 42.753 11.167H42.7362Z" fill="#E4B03A"/>
<path fill-rule="evenodd" clip-rule="evenodd" d="M39.304 15.4983L38.2916 19.4598C36.2944 19.9012 34.2538 20.1154 32.2085 20.0984C26.0583 19.9765 21.5506 17.1577 21.8237 11.2973C22.1597 4.5757 28.8309 1.12668 35.2668 1.03426C37.3656 1.02276 39.4578 1.26824 41.4969 1.76523L39.5813 5.57133C37.9037 5.06739 36.1489 4.87098 34.4014 4.9916C31.4607 5.20585 28.7385 6.78962 27.9445 9.89415C26.9111 13.7927 29.1628 16.5359 33.1537 16.5359C35.2438 16.4957 37.3164 16.146 39.304 15.4983Z" fill="#E4B03A"/>
<path fill-rule="evenodd" clip-rule="evenodd" d="M13.2956 1.09307C18.446 1.09307 22.3194 2.27775 22.689 6.55436C22.8319 8.19695 22.2353 9.66309 21.7774 11.3981L19.6307 19.7329C15.5221 19.7329 12.1698 19.8253 8.45607 20.1278C5.01546 20.1278 0.894287 19.3968 0.894287 15.011C0.974106 7.84406 12.0773 8.49522 16.7992 8.49522C17.8033 5.63014 15.4591 4.47487 12.1782 4.47487C9.19545 4.47487 6.73787 5.31507 4.3307 6.11746L5.1709 2.25254C7.80637 1.46399 10.5448 1.07319 13.2956 1.09307ZM16.0977 11.3603C13.5057 11.3603 6.17914 10.747 6.17914 14.7211C6.17914 16.6998 8.25023 16.9938 9.98524 16.9938C14.5475 16.9938 15.2575 15.4017 16.0977 11.3687V11.3603Z" fill="#E4B03A"/>
<path fill-rule="evenodd" clip-rule="evenodd" d="M73.9621 16.015C73.6336 16.0135 73.308 16.0774 73.0044 16.2029C72.7008 16.3284 72.4251 16.513 72.1935 16.7459C71.7172 17.2365 71.4454 17.8898 71.4331 18.5734C71.4414 19.2348 71.703 19.8678 72.1641 20.342C72.3987 20.5808 72.6785 20.7705 72.9872 20.8999C73.2959 21.0294 73.6273 21.0961 73.9621 21.0961C74.2969 21.0961 74.6283 21.0294 74.937 20.8999C75.2457 20.7705 75.5255 20.5808 75.7601 20.342C75.9943 20.1114 76.1794 19.8359 76.3043 19.532C76.4292 19.228 76.4913 18.902 76.4869 18.5734C76.4965 18.2404 76.4368 17.909 76.3117 17.6002C76.1866 17.2914 75.9988 17.012 75.7601 16.7796C75.5254 16.5402 75.2458 16.3494 74.9373 16.2182C74.6287 16.087 74.2974 16.018 73.9621 16.015ZM76.2474 18.5734C76.2475 18.869 76.188 19.1616 76.0725 19.4337C75.957 19.7058 75.7879 19.9518 75.5753 20.1572C75.1455 20.5826 74.5668 20.8238 73.9621 20.8293C73.3617 20.8272 72.7861 20.5898 72.3588 20.168C71.9315 19.7462 71.6867 19.1737 71.6768 18.5734C71.6834 17.9602 71.9238 17.3727 72.3489 16.9308C72.56 16.7177 72.8113 16.5485 73.0882 16.4331C73.3651 16.3178 73.6621 16.2584 73.9621 16.2586C74.265 16.2571 74.5648 16.3187 74.8426 16.4395C75.1203 16.5603 75.3699 16.7376 75.5753 16.9602C75.7903 17.1699 75.9607 17.4209 76.0763 17.6981C76.1918 17.9753 76.25 18.2731 76.2474 18.5734ZM74.0209 17.0526H72.9875V19.9933H73.3824V18.6658H74.1133L74.7519 19.9765H75.2098L74.5418 18.6364C74.7361 18.6256 74.9189 18.5408 75.0526 18.3994C75.1862 18.2579 75.2605 18.0706 75.2602 17.876C75.2602 17.2963 74.8653 17.0358 74.0419 17.0358L74.0209 17.0526ZM73.9621 17.3257C74.5418 17.3257 74.8443 17.4769 74.8443 17.8424C74.8443 18.3003 74.5712 18.4221 73.9621 18.4221H73.3824V17.3257H73.9621Z" fill="#E4B03A"/>
</g>
</g>
<defs>
<clipPath id="clip0_31_267">
<rect width="76" height="21" fill="white" transform="translate(0.5 0.5)"/>
</clipPath>
</defs>
</svg>
