<svg width="106" height="22" viewBox="0 0 106 22" fill="none" xmlns="http://www.w3.org/2000/svg">
<g clip-path="url(#clip0_31_211)">
<mask id="mask0_31_211" style="mask-type:luminance" maskUnits="userSpaceOnUse" x="1" y="0" width="104" height="22">
<path d="M104.646 0.857788H1.10376V21.1024H104.646V0.857788Z" fill="white"/>
</mask>
<g mask="url(#mask0_31_211)">
<path fill-rule="evenodd" clip-rule="evenodd" d="M102.216 1.04596C102.635 1.04896 103.046 1.15746 103.411 1.36142C103.794 1.5663 104.11 1.87771 104.319 2.25798C104.531 2.62666 104.643 3.0446 104.643 3.47C104.643 3.89539 104.531 4.31333 104.319 4.68201C104.112 5.06356 103.799 5.37689 103.417 5.58411C103.05 5.79485 102.634 5.90554 102.211 5.9051C101.786 5.90496 101.368 5.79435 100.998 5.58411C100.618 5.37758 100.306 5.06394 100.102 4.68201C99.8895 4.31531 99.7769 3.89932 99.7754 3.47553C99.7775 3.04833 99.89 2.62892 100.102 2.25798C100.317 1.87788 100.635 1.56688 101.021 1.36142C101.386 1.15678 101.797 1.04824 102.216 1.04596ZM101.148 4.82037V2.20817H102.044C102.27 2.19877 102.495 2.22113 102.714 2.27458C102.848 2.32178 102.962 2.41113 103.041 2.52916C103.12 2.64087 103.162 2.77424 103.162 2.91103C103.165 3.09856 103.093 3.27946 102.963 3.41465C102.815 3.56003 102.617 3.64487 102.41 3.65263C102.494 3.68352 102.571 3.73052 102.637 3.79099C102.784 3.94891 102.912 4.12351 103.019 4.31121L103.34 4.82037H102.825L102.592 4.4053C102.485 4.17771 102.334 3.97292 102.15 3.80206C102.05 3.73495 101.932 3.70194 101.812 3.70797H101.563V4.81484L101.148 4.82037Z" fill="#E4B03A"/>
<path fill-rule="evenodd" clip-rule="evenodd" d="M55.3402 0.88546H55.4232V6.47513H49.8059V0.88546H55.3402ZM30.7899 12.7013L43.8454 13.5093C44.1062 13.5122 44.3554 13.6178 44.5387 13.8033C44.7221 13.9888 44.825 14.2391 44.825 14.4999C44.825 14.6293 44.7995 14.7574 44.75 14.8769C44.7005 14.9964 44.6279 15.105 44.5364 15.1965C44.445 15.288 44.3364 15.3605 44.2169 15.41C44.0973 15.4595 43.9692 15.485 43.8399 15.485H25.239V8.21291C25.7924 10.4599 27.7792 12.2972 30.7733 12.7013H30.7899ZM25.2556 21.1024H44.2715C45.5977 21.0992 46.8817 20.6363 47.905 19.7927C48.9282 18.9491 49.6273 17.7769 49.8834 16.4757C50.1085 17.7632 50.7777 18.9311 51.7746 19.7764C52.7716 20.6217 54.0332 21.0908 55.3402 21.1024H67.5157C68.8169 21.0973 70.0755 20.6385 71.0746 19.8051C72.0738 18.9716 72.7509 17.8157 72.9892 16.5365V21.1024H92.4756C93.9905 21.098 95.442 20.4943 96.5132 19.4231C97.5844 18.3519 98.1881 16.9003 98.1925 15.3854V14.5719C98.1881 13.057 97.5844 11.6054 96.5132 10.5342C95.442 9.463 93.9905 8.85928 92.4756 8.8549L91.4074 8.80509C85.3197 8.53944 79.2983 8.25165 73.2438 7.92513C73.7142 10.2994 75.7176 12.2751 78.8611 12.7013L92.0605 13.5093C92.3223 13.5107 92.5728 13.6157 92.7574 13.8014C92.942 13.987 93.0456 14.2381 93.0456 14.4999C93.0456 14.7612 92.9418 15.0117 92.7571 15.1965C92.5723 15.3812 92.3218 15.485 92.0605 15.485H73.0501V7.91406L67.4051 7.62627V14.0959C67.4051 14.5362 67.2301 14.9585 66.9188 15.2699C66.6074 15.5813 66.1851 15.7562 65.7448 15.7562H57.0835C56.6432 15.7562 56.2209 15.5813 55.9095 15.2699C55.5981 14.9585 55.4232 14.5362 55.4232 14.0959V7.00643L49.8059 6.71311V13.1329C49.4729 11.9239 48.7497 10.8587 47.7489 10.1031C46.748 9.34744 45.5256 8.94366 44.2715 8.95451L19.4003 7.32742V21.1024H25.239H25.2556ZM48.8982 6.47513V0.857788H30.7899C29.5163 0.866009 28.2816 1.29722 27.2798 2.08362C26.278 2.87003 25.566 3.96705 25.2556 5.20224V0.88546H14.4304L10.7446 6.47513H48.8982ZM17.015 7.18906L8.08809 21.1024H1.10376L10.5121 6.81273L17.0039 7.18906H17.015ZM98.187 6.47513V0.857788H78.8556C77.3572 0.861786 75.9198 1.45162 74.8505 2.50126C73.7812 3.5509 73.1649 4.9771 73.1331 6.47513H98.187ZM67.4272 6.47513V0.88546H73.0501V6.47513H67.4272Z" fill="#E4B03A"/>
</g>
</g>
<defs>
<clipPath id="clip0_31_211">
<rect width="105" height="21" fill="white" transform="translate(0.5 0.5)"/>
</clipPath>
</defs>
</svg>
