<svg width="115" height="22" viewBox="0 0 115 22" fill="none" xmlns="http://www.w3.org/2000/svg">
<g clip-path="url(#clip0_31_218)">
<mask id="mask0_31_218" style="mask-type:luminance" maskUnits="userSpaceOnUse" x="1" y="0" width="114" height="22">
<path d="M114.067 0.857788H1.13989V21.1024H114.067V0.857788Z" fill="white"/>
</mask>
<g mask="url(#mask0_31_218)">
<path fill-rule="evenodd" clip-rule="evenodd" d="M77.3438 20.6738C77.3437 20.7336 77.367 20.7911 77.4087 20.8339C77.4504 20.8768 77.5072 20.9016 77.567 20.9032H83.1382C83.168 20.9032 83.1975 20.8972 83.225 20.8856C83.2525 20.874 83.2774 20.857 83.2983 20.8357C83.3191 20.8143 83.3354 20.7889 83.3463 20.7611C83.3571 20.7333 83.3623 20.7037 83.3615 20.6738V1.34671C83.3623 1.31715 83.3571 1.28774 83.3462 1.26027C83.3353 1.2328 83.3188 1.20784 83.2979 1.18694C83.277 1.16603 83.2521 1.14961 83.2246 1.13868C83.1971 1.12775 83.1677 1.12254 83.1382 1.12338H77.567C77.5078 1.12338 77.4509 1.14691 77.4091 1.18879C77.3672 1.23067 77.3438 1.28748 77.3438 1.34671V20.6618V20.6738Z" fill="#E4B03A"/>
<path fill-rule="evenodd" clip-rule="evenodd" d="M51.3409 20.4384L43.138 1.46139C43.1089 1.4022 43.0644 1.35192 43.0091 1.31582C42.9539 1.27972 42.89 1.25912 42.8241 1.25616H34.573C34.5069 1.25847 34.4427 1.27881 34.3874 1.31499C34.3321 1.35116 34.2877 1.40179 34.2591 1.46139L26.0562 20.4384C26.0416 20.46 26.0337 20.4854 26.0335 20.5115C26.0332 20.5375 26.0406 20.5631 26.0548 20.585C26.0689 20.6068 26.0892 20.6241 26.1131 20.6345C26.1369 20.6449 26.1634 20.6481 26.189 20.6436H31.9956C32.0611 20.6391 32.1242 20.6171 32.1783 20.5799C32.2324 20.5428 32.2756 20.4918 32.3035 20.4324L33.5107 17.4989C33.5388 17.4402 33.5822 17.3901 33.6364 17.354C33.6906 17.3179 33.7535 17.2971 33.8185 17.2937H43.6148C43.6793 17.2962 43.7418 17.3167 43.7952 17.353C43.8486 17.3893 43.8906 17.4398 43.9166 17.4989L45.0333 20.4324C45.059 20.4922 45.1008 20.5436 45.1541 20.5809C45.2075 20.6182 45.2701 20.64 45.3351 20.6436H51.202C51.2275 20.6469 51.2534 20.643 51.2768 20.6324C51.3001 20.6218 51.3201 20.605 51.3345 20.5837C51.3489 20.5624 51.3571 20.5376 51.3582 20.512C51.3594 20.4863 51.3533 20.4609 51.3409 20.4384ZM35.1162 13.1953L37.8264 6.13321C38.1463 5.42701 38.43 5.33043 38.7438 5.33043C39.0577 5.33043 39.4078 5.62016 39.6009 6.16943L42.2688 13.1953H35.1162Z" fill="#E4B03A"/>
<path fill-rule="evenodd" clip-rule="evenodd" d="M101.88 1.00262H95.524C87.8342 1.11731 86.6572 3.5679 86.6572 10.7265C86.6572 11.9337 86.6572 13.1409 86.7116 14.3481C86.9228 19.1226 89.5303 20.6014 93.8883 20.9273C95.2524 21.0178 98.4334 21.0782 98.5662 21.0722C98.5662 21.0722 102.145 21.0178 103.51 20.9273C107.868 20.6014 110.475 19.1165 110.686 14.3481C110.747 13.1409 110.747 11.9337 110.747 10.7265C110.747 3.5679 109.54 1.11731 101.88 1.00262ZM104.662 11.5595C104.662 14.8189 104.457 16.0985 100.872 16.183C99.9363 16.2374 97.4676 16.2374 96.532 16.183C92.9407 16.0985 92.7354 14.8189 92.7354 11.5595V10.7567C92.7205 9.98503 92.7507 9.21312 92.826 8.44495C93.1821 5.7167 95.2404 5.8676 97.2443 5.80724C97.9807 5.80724 99.4172 5.80724 100.16 5.80724C102.176 5.8676 104.222 5.7167 104.578 8.44495C104.648 9.21343 104.676 9.98517 104.662 10.7567V11.5595Z" fill="#E4B03A"/>
<path fill-rule="evenodd" clip-rule="evenodd" d="M19.1029 13.2616C18.9339 15.2777 18.2337 16.1166 15.3546 16.183C14.419 16.2374 11.9503 16.2374 11.0147 16.183C7.42935 16.0985 7.2181 14.8189 7.2181 11.5595V10.7567C7.20317 9.98503 7.2334 9.21312 7.30864 8.44495C7.66476 5.7167 9.72302 5.8676 11.727 5.80724C12.4694 5.80724 13.9059 5.80724 14.6423 5.80724C16.5678 5.86157 18.5174 5.73481 19.0003 8.08883H25.1509C24.7948 2.95224 23.0202 1.0992 16.3626 1.00262H10.0067C2.34708 1.11731 1.13989 3.5679 1.13989 10.7265C1.13989 11.9337 1.13989 13.1409 1.20025 14.3481C1.40547 19.1527 4.01904 20.6315 8.38303 20.9575C9.74716 21.048 12.9221 21.1084 13.0549 21.1023C13.0549 21.1023 16.6342 21.048 17.9983 20.9575C22.3563 20.6315 24.9698 19.1467 25.1751 14.3783C25.1751 14.0041 25.1751 13.6359 25.2173 13.2616H19.1029Z" fill="#E4B03A"/>
<path fill-rule="evenodd" clip-rule="evenodd" d="M59.23 13.1651C60.564 13.1651 61.8677 13.2134 63.2077 13.2255L64.8495 13.2918C66.2136 13.3643 68.2779 12.8693 68.2779 15.1026C68.2779 16.5513 66.8836 16.5814 65.8152 16.6358C64.27 16.6841 64.4994 16.7082 62.9602 16.6961C62.0126 16.6961 61.9341 16.6961 60.9563 16.6539C59.6223 16.5814 58.7351 16.2495 58.6566 14.7646L52.7534 14.7405C52.7534 15.9899 52.675 16.9617 53.3208 18.1266C54.7211 20.4807 57.546 20.9153 59.9604 20.9635L62.8214 21.042C65.103 21.042 68.3564 21.042 70.4629 20.5048C73.5714 19.7081 74.175 17.6921 74.175 14.7405C74.254 13.4311 73.8928 12.1329 73.1489 11.0525C72.2677 9.89964 70.8673 9.32623 69.141 9.24173C65.8514 9.06668 65.109 9.00632 61.8194 8.98218H60.745C59.4413 8.98218 57.9564 8.55966 57.9685 6.9541C57.9806 5.34854 59.3145 5.18557 60.6545 5.14331C61.3124 5.14331 62.0971 5.14331 63.431 5.14331C64.3787 5.14331 64.101 5.19764 65.0487 5.18557C66.6603 5.18557 68.1632 5.2761 68.1511 7.08689L74.0784 7.12914V6.23582C74.1147 1.76922 71.157 1.20787 67.8916 0.978507C66.5576 0.857788 65.1935 0.857788 63.8596 0.857788C61.2822 0.857788 61.3064 0.894004 58.729 1.0268C54.1598 1.3467 52.017 2.23398 51.9808 7.06275C51.9446 12.1933 54.6366 13.0987 59.224 13.1349L59.23 13.1651Z" fill="#E4B03A"/>
<path fill-rule="evenodd" clip-rule="evenodd" d="M113.861 18.5914C113.732 18.3602 113.542 18.1684 113.312 18.0361C113.082 17.905 112.822 17.8363 112.558 17.8369C112.295 17.8365 112.037 17.9052 111.809 18.0361C111.576 18.1663 111.384 18.3585 111.254 18.5914C111.122 18.821 111.054 19.0813 111.055 19.3459C111.054 19.612 111.124 19.8735 111.258 20.1036C111.392 20.3337 111.584 20.5243 111.815 20.6557C112.042 20.7826 112.298 20.8492 112.558 20.8492C112.818 20.8492 113.073 20.7826 113.3 20.6557C113.531 20.5231 113.723 20.3325 113.858 20.1028C113.992 19.873 114.064 19.6121 114.067 19.3459C114.069 19.0804 113.998 18.8193 113.861 18.5914ZM113.662 19.9918C113.546 20.179 113.383 20.333 113.189 20.4388C112.996 20.5445 112.778 20.5985 112.558 20.5953C112.336 20.5958 112.118 20.5397 111.924 20.4324C111.728 20.3206 111.565 20.159 111.451 19.964C111.338 19.769 111.278 19.5474 111.278 19.3218C111.279 19.0976 111.337 18.8773 111.447 18.682C111.559 18.4863 111.721 18.3237 111.916 18.2106C112.111 18.0975 112.332 18.0379 112.558 18.0379C112.783 18.0379 113.005 18.0975 113.2 18.2106C113.395 18.3237 113.556 18.4863 113.668 18.682C113.778 18.8773 113.836 19.0976 113.837 19.3218C113.837 19.5488 113.777 19.7717 113.662 19.9676V19.9918Z" fill="#E4B03A"/>
<path fill-rule="evenodd" clip-rule="evenodd" d="M112.98 19.7081C112.931 19.6061 112.861 19.5156 112.775 19.4425C112.887 19.3991 112.982 19.3208 113.046 19.2192C113.106 19.1299 113.138 19.0247 113.137 18.9174C113.139 18.8291 113.118 18.7419 113.077 18.6638C113.034 18.5897 112.974 18.5274 112.902 18.4828C112.797 18.4361 112.684 18.4154 112.57 18.4224H111.966V20.2815H112.262V19.4968H112.479C112.509 19.4968 112.558 19.5572 112.63 19.6779L112.69 19.7926L112.944 20.2815H113.276L112.968 19.7081H112.98ZM112.479 19.2735H112.274V18.6699H112.497C112.57 18.6618 112.644 18.6766 112.708 18.7121C112.748 18.7386 112.781 18.7737 112.805 18.8147C112.825 18.8604 112.835 18.9098 112.835 18.9596C112.836 19.0446 112.809 19.1275 112.757 19.195C112.721 19.2321 112.678 19.2606 112.63 19.2783C112.582 19.2961 112.53 19.3027 112.479 19.2976V19.2735Z" fill="#E4B03A"/>
</g>
</g>
<defs>
<clipPath id="clip0_31_218">
<rect width="114" height="21" fill="white" transform="translate(0.5 0.5)"/>
</clipPath>
</defs>
</svg>
