<svg width="66" height="22" viewBox="0 0 66 22" fill="none" xmlns="http://www.w3.org/2000/svg">
<g clip-path="url(#clip0_31_230)">
<mask id="mask0_31_230" style="mask-type:luminance" maskUnits="userSpaceOnUse" x="0" y="0" width="66" height="22">
<path d="M65.4387 0.857788H0.561035V21.1024H65.4387V0.857788Z" fill="white"/>
</mask>
<g mask="url(#mask0_31_230)">
<path fill-rule="evenodd" clip-rule="evenodd" d="M0.561035 1.93972H8.45011L9.31358 1.9744L10.1424 2.04722L10.9365 2.24488L11.6924 2.4252L12.386 2.71302L13.0344 3.00084L13.6482 3.34762L14.2239 3.74294L14.7267 4.1764L15.233 4.64454L15.6665 5.14737L16.0618 5.68833L16.3843 6.26397L16.7102 6.83962L16.953 7.44647L17.168 8.06025L28.3687 0.857788L32.4398 3.59382L23.722 9.21501L25.1299 10.1513L33.9171 4.56825L37.7004 7.09969L29.0311 12.8284L30.5083 13.7265L39.3337 8.1088V1.93972H45.8183V14.2224H51.5817V19.9858H39.3198V14.0906L28.4069 21.1024L17.2755 13.5739L17.0605 14.2224L16.8593 14.8362L16.5126 15.4465L16.1866 16.0603L15.7982 16.6013L15.3648 17.1561L14.8966 17.6624L14.3591 18.0924L13.8182 18.5085L13.1697 18.8553L12.5212 19.1778L11.7999 19.4691L11.044 19.6841L10.2499 19.8262L9.42107 19.9372L8.52293 19.9719H0.561035V1.93972ZM6.75786 7.59558H8.45011L9.20608 7.66493L9.81986 7.8834L10.3608 8.2059L10.829 8.63937L11.1515 9.14219L11.4046 9.68315L11.5468 10.2969L11.5849 10.9142L11.5468 11.528L11.4046 12.1383L11.1515 12.6793L10.8047 13.1856L10.3747 13.6156L9.83373 13.9415L9.18527 14.1565L8.46398 14.2293H6.75786V7.59558ZM53.1907 1.93972H59.71V14.2224H65.4387V19.9858H53.1907V1.95359V1.93972Z" fill="#E4B03A"/>
</g>
</g>
<defs>
<clipPath id="clip0_31_230">
<rect width="65" height="21" fill="white" transform="translate(0.5 0.5)"/>
</clipPath>
</defs>
</svg>
