<svg width="128" height="22" viewBox="0 0 128 22" fill="none" xmlns="http://www.w3.org/2000/svg">
<g clip-path="url(#clip0_31_236)">
<path fill-rule="evenodd" clip-rule="evenodd" d="M1.24719 20.5521L5.62054 0.857788H13.4311L13.7884 11.8626L19.0478 0.857788H26.8727L22.4779 20.5521H16.8112L19.155 9.96178L13.8813 20.5521H9.80809L9.60085 9.96178L6.97113 20.5521H1.24719Z" fill="#E4B03A"/>
<path fill-rule="evenodd" clip-rule="evenodd" d="M27.5515 4.06634H32.8253L33.5398 0.857788H28.2447L27.5515 4.06634Z" fill="#E4B03A"/>
<path fill-rule="evenodd" clip-rule="evenodd" d="M29.1666 20.5736L23.85 20.5521L27.1014 5.96716H32.4109L29.1666 20.5736Z" fill="#E4B03A"/>
<path fill-rule="evenodd" clip-rule="evenodd" d="M49.2897 5.96718H54.0418L53.6273 7.76797C54.2623 6.98979 55.1122 6.4157 56.0713 6.11725C56.8701 5.84808 57.7079 5.71287 58.5509 5.71708L57.3289 10.4692C57.0288 10.4692 53.3486 9.75455 52.2053 15.3713L51.019 20.5736H46.0168L49.2897 5.96718Z" fill="#E4B03A"/>
<path fill-rule="evenodd" clip-rule="evenodd" d="M46.5098 15.1498C46.5098 15.2641 44.8448 21.1238 37.4987 20.9737C27.6873 20.7808 30.217 5.0096 41.3862 5.56698C47.7318 5.88855 47.4174 11.1623 47.3602 11.391H41.8792C41.9507 11.1837 42.1365 9.0042 40.3929 9.04708C37.1414 9.13998 34.8333 17.1935 38.4063 17.2936C40.057 17.3507 40.8288 15.4356 40.9788 15.1926L46.5098 15.1498Z" fill="#E4B03A"/>
<path fill-rule="evenodd" clip-rule="evenodd" d="M93.6162 21.0381C82.9329 20.5879 86.1486 4.85957 97.1106 5.38122C107.415 5.88859 104.492 21.474 93.6162 21.0381ZM96.7533 8.81844C93.1803 8.10385 90.5577 16.629 93.9378 17.3222C97.6966 18.1154 100.212 9.51161 96.7533 8.81844Z" fill="#E4B03A"/>
<path fill-rule="evenodd" clip-rule="evenodd" d="M113.632 3.80909C112.167 3.80909 111.889 4.36647 111.646 5.4741L111.546 5.96717H114.647L115.419 2.43706H120.264L119.506 5.96717H122.014L121.3 9.32579H118.806L117.434 15.7572C117.321 16.1033 117.302 16.4729 117.377 16.8291C117.584 17.4079 119.67 17.1649 119.67 17.1649L118.863 20.5093C118.863 20.5093 114.618 20.9952 113.189 20.0019C112.553 19.566 111.86 18.6656 112.289 16.729L113.925 9.37581H111.017L108.558 20.6022H103.335L105.779 9.37581H103.092L103.842 6.0172H106.45C106.922 4.1378 107.337 2.85867 108.501 1.88682C110.095 0.586245 114.218 1.09361 114.218 1.09361L113.632 3.85911V3.80909Z" fill="#E4B03A"/>
<path fill-rule="evenodd" clip-rule="evenodd" d="M66.7687 15.5571H76.6873C76.6873 15.5571 75.837 17.7509 78.9526 17.7723C81.0964 17.7723 81.9611 15.307 79.0527 14.7996C77.7164 14.5566 72.557 13.692 73.1358 9.71166C73.6217 6.44595 77.0232 5.30259 80.7391 5.35976C88.3425 5.45265 86.9133 9.9189 87.0133 10.219H81.9396C81.9396 10.219 82.4827 8.34678 80.196 8.34678C78.1094 8.34678 77.602 10.219 80.0102 10.7264C82.9329 11.3695 86.2987 11.5196 86.4845 15.2927C86.5417 16.3431 85.92 21.2596 78.2595 21.1095C71.2421 20.9594 70.749 17.658 70.942 16.1073C70.1187 17.6848 68.8556 18.9896 67.3056 19.8635C65.7556 20.7374 63.9854 21.1429 62.2096 21.0309C51.4906 20.6879 54.7706 4.86668 65.7183 5.40978C70.7204 5.65274 72.5927 9.42582 71.9924 13.1417C71.8995 13.7992 71.8424 13.8921 71.6494 13.9492L66.7687 15.5642V15.5571ZM65.3395 8.79698C61.8165 8.10382 59.1868 16.579 62.5454 17.2936C66.2613 18.0582 68.7624 9.48299 65.3252 8.78269L65.3395 8.79698Z" fill="#E4B03A"/>
<path fill-rule="evenodd" clip-rule="evenodd" d="M124.937 5.94574C125.437 5.94574 125.917 6.1445 126.271 6.49829C126.625 6.85209 126.824 7.33194 126.824 7.83228C126.824 8.33262 126.625 8.81247 126.271 9.16627C125.917 9.52006 125.437 9.71882 124.937 9.71882C124.437 9.71882 123.957 9.52006 123.603 9.16627C123.249 8.81247 123.051 8.33262 123.051 7.83228C123.051 7.33194 123.249 6.85209 123.603 6.49829C123.957 6.1445 124.437 5.94574 124.937 5.94574ZM124.937 6.2816C124.726 6.26722 124.514 6.29637 124.315 6.36724C124.116 6.43812 123.933 6.54921 123.778 6.69362C123.624 6.83803 123.501 7.01267 123.416 7.2067C123.332 7.40074 123.289 7.61002 123.289 7.82156C123.289 8.0331 123.332 8.24239 123.416 8.43642C123.501 8.63046 123.624 8.8051 123.778 8.9495C123.933 9.09391 124.116 9.205 124.315 9.27588C124.514 9.34676 124.726 9.37591 124.937 9.36152C125.148 9.37591 125.36 9.34676 125.559 9.27588C125.759 9.205 125.941 9.09391 126.096 8.9495C126.25 8.8051 126.374 8.63046 126.458 8.43642C126.542 8.24239 126.586 8.0331 126.586 7.82156C126.586 7.61002 126.542 7.40074 126.458 7.2067C126.374 7.01267 126.25 6.83803 126.096 6.69362C125.941 6.54921 125.759 6.43812 125.559 6.36724C125.36 6.29637 125.148 6.26722 124.937 6.2816ZM125.273 8.04666L125.652 8.76126H125.201L124.901 8.04666H124.637L124.523 8.85416H124.158L124.473 6.84613H125.394C125.532 6.88151 125.653 6.96215 125.738 7.07498C125.824 7.18781 125.869 7.32624 125.866 7.46784C125.868 7.54316 125.855 7.61811 125.827 7.68826C125.8 7.75842 125.758 7.82235 125.706 7.87629C125.653 7.93024 125.59 7.9731 125.521 8.00236C125.451 8.03162 125.377 8.04668 125.302 8.04666H125.273ZM125.18 7.11054H124.801L124.708 7.76797H125.087C125.136 7.77718 125.186 7.77593 125.234 7.76431C125.282 7.75269 125.328 7.73096 125.367 7.70056C125.406 7.67016 125.438 7.63178 125.462 7.58796C125.485 7.54414 125.498 7.49589 125.502 7.4464C125.504 7.40298 125.497 7.35962 125.481 7.31894C125.466 7.27827 125.443 7.24111 125.413 7.20972C125.383 7.17833 125.346 7.15335 125.306 7.13631C125.267 7.11926 125.223 7.11049 125.18 7.11054Z" fill="#E4B03A"/>
</g>
<defs>
<clipPath id="clip0_31_236">
<rect width="127" height="21" fill="white" transform="translate(0.5 0.5)"/>
</clipPath>
</defs>
</svg>
