<svg width="126" height="22" viewBox="0 0 126 22" fill="none" xmlns="http://www.w3.org/2000/svg">
<g clip-path="url(#clip0_31_246)">
<mask id="mask0_31_246" style="mask-type:luminance" maskUnits="userSpaceOnUse" x="0" y="0" width="125" height="22">
<path d="M124.609 0.857788H0.981445V21.1024H124.609V0.857788Z" fill="white"/>
</mask>
<g mask="url(#mask0_31_246)">
<path fill-rule="evenodd" clip-rule="evenodd" d="M23.1576 15.9672L23.1845 1.14043L28.9591 1.12024L28.986 20.8735H18.931L6.86368 5.96602L6.83676 20.8197L1.03529 20.8735L0.981445 1.14043L1.06221 1.12024H11.1172L23.1576 15.9672Z" fill="#E4B03A"/>
<path fill-rule="evenodd" clip-rule="evenodd" d="M93.8185 1.14045L93.8589 20.8735H87.694V1.16737L87.7478 1.11353C89.7669 1.11353 91.786 1.11353 93.805 1.11353L93.8185 1.14045Z" fill="#E4B03A"/>
<path fill-rule="evenodd" clip-rule="evenodd" d="M66.1976 10.657L66.2245 10.6839L66.9716 10.0647L76.8516 1.14044H85.049L73.7557 10.7109L73.7826 10.8118L86.496 20.8197L77.5448 20.8735L66.2514 10.758L66.1976 10.8387V20.8735H60.0394V1.14044H66.1976V10.657Z" fill="#E4B03A"/>
<path fill-rule="evenodd" clip-rule="evenodd" d="M50.4151 0.91163C52.9726 1.01258 55.732 1.1943 57.0983 3.71814C57.4113 4.44108 57.5541 5.22629 57.5156 6.01316V16.7412C57.441 17.4568 57.1898 18.1426 56.7845 18.7371C56.3792 19.3315 55.8325 19.8159 55.1936 20.1467C52.5015 21.311 49.2643 21.0216 46.1414 21.1024C42.4533 21.0485 38.6641 21.2841 35.2317 20.6649C34.4265 20.5301 33.6719 20.1826 33.046 19.6584C32.4201 19.1343 31.9455 18.4524 31.6714 17.6834L31.4628 16.445L31.5166 5.07092C31.5637 3.62392 32.8627 2.37882 34.0405 1.7058C36.0259 0.857788 38.4286 0.958742 40.7236 0.857788L50.4151 0.91163ZM38.3007 5.78433C37.7892 5.88528 37.1431 6.09392 37.0623 6.68618C37.0623 9.6273 36.9883 12.6155 37.1162 15.5297C37.2979 16.021 37.8363 15.9739 38.2267 16.0951H49.3652C50.3209 16.021 51.4516 16.2499 51.9698 15.3009V6.96885L51.8891 6.29583C51.7343 5.9122 51.3506 5.85836 51.0141 5.75741H38.2738L38.3007 5.78433Z" fill="#E4B03A"/>
<path fill-rule="evenodd" clip-rule="evenodd" d="M124.609 20.7928V20.8735H117.798C117.186 19.7361 116.567 18.6525 115.995 17.5084L115.867 17.4613H103.752L101.895 20.8264L95.0098 20.8803L105.886 1.14044H113.854L124.623 20.7928H124.609ZM109.803 6.0939L106.041 13.1337H113.626C112.36 10.7849 111.095 8.42257 109.83 6.0939H109.803Z" fill="#E4B03A"/>
</g>
</g>
<defs>
<clipPath id="clip0_31_246">
<rect width="125" height="21" fill="white" transform="translate(0.5 0.5)"/>
</clipPath>
</defs>
</svg>
