<svg width="118" height="22" viewBox="0 0 118 22" fill="none" xmlns="http://www.w3.org/2000/svg">
<g clip-path="url(#clip0_31_256)">
<mask id="mask0_31_256" style="mask-type:luminance" maskUnits="userSpaceOnUse" x="1" y="0" width="117" height="22">
<path d="M117.408 0.857788H1.3324V21.1024H117.408V0.857788Z" fill="white"/>
</mask>
<g mask="url(#mask0_31_256)">
<path fill-rule="evenodd" clip-rule="evenodd" d="M115.64 17.2061C115.29 17.2061 114.948 17.3099 114.657 17.5045C114.366 17.6991 114.14 17.9756 114.006 18.299C113.872 18.6225 113.838 18.9784 113.906 19.3215C113.975 19.6647 114.144 19.9798 114.392 20.2268C114.64 20.4738 114.956 20.6417 115.299 20.7093C115.642 20.7768 115.998 20.7409 116.321 20.6061C116.644 20.4713 116.92 20.2437 117.113 19.9521C117.307 19.6605 117.41 19.3181 117.408 18.9681C117.407 18.5002 117.22 18.052 116.888 17.7218C116.557 17.3915 116.108 17.2061 115.64 17.2061ZM115.64 20.5316C115.332 20.5328 115.031 20.4426 114.774 20.2725C114.517 20.1025 114.317 19.86 114.198 19.576C114.079 19.2919 114.047 18.9789 114.105 18.6766C114.164 18.3742 114.312 18.0962 114.528 17.8775C114.745 17.6589 115.022 17.5094 115.324 17.4482C115.626 17.3869 115.939 17.4165 116.224 17.5332C116.509 17.6499 116.753 17.8485 116.925 18.104C117.097 18.3594 117.19 18.6601 117.191 18.9681C117.192 19.1726 117.153 19.3752 117.075 19.5645C116.998 19.7537 116.884 19.9259 116.74 20.0711C116.595 20.2162 116.424 20.3316 116.236 20.4106C116.047 20.4897 115.845 20.5307 115.64 20.5316Z" fill="#E4B03A"/>
<path fill-rule="evenodd" clip-rule="evenodd" d="M116.552 18.509C116.556 18.4243 116.537 18.3402 116.498 18.2651C116.459 18.1899 116.4 18.1264 116.329 18.0809C116.179 18.0048 116.012 17.9705 115.845 17.9816H114.983V19.9608H115.225V19.0487H115.671L116.236 19.9608H116.521L115.901 19.0487C116.254 19.0487 116.521 18.8936 116.521 18.509H116.552ZM115.597 18.8564H115.225V18.1615H115.789C116.037 18.1615 116.304 18.1987 116.304 18.5028C116.304 18.906 115.876 18.8564 115.597 18.8564Z" fill="#E4B03A"/>
<path fill-rule="evenodd" clip-rule="evenodd" d="M105.273 8.92333L108.89 5.05806C109.052 4.88639 109.16 4.67052 109.2 4.43763C109.2 4.15224 108.958 4.04056 108.195 4.04056H107.277V1.59607H117.16V4.03435H115.857C114.362 4.03435 114.083 4.26391 111.992 6.90073L106.265 13.105V16.871C106.265 17.8389 106.756 18.1801 108.127 18.1801H110.286V20.5315H96.4502V18.1553H98.6093C100.005 18.1553 100.471 17.8141 100.471 16.8462V13.0802L93.7761 5.62265C92.6656 4.31975 92.8207 4.03435 89.7185 4.03435V1.59607H102.233V4.03435H101.339C100.433 4.03435 100.049 4.20807 100.049 4.54311C100.049 4.87814 100.328 5.05806 100.502 5.28141L103.914 9.00399C103.994 9.11138 104.099 9.19776 104.219 9.25567C104.34 9.31357 104.473 9.34128 104.606 9.3364C104.74 9.33151 104.871 9.29418 104.987 9.22763C105.103 9.16107 105.201 9.06729 105.273 8.95435V8.92333Z" fill="#E4B03A"/>
<path fill-rule="evenodd" clip-rule="evenodd" d="M21.3164 1.5961H24.3379V8.42081H21.546C21.2978 7.05587 20.4478 6.52851 19.6847 5.81501C18.2825 4.53073 15.2548 3.45739 12.7049 3.45739C9.39797 3.43877 6.61845 4.46248 6.61845 5.96392C6.61845 10.127 25.4485 6.8139 25.4485 14.6933C25.4485 18.8068 21.4157 21.1024 14.1691 21.1024C11.2178 21.0458 8.31052 20.376 5.63197 19.1356C4.93088 18.7261 4.63308 19.5141 4.50279 20.5068H1.40065V13.4773H4.20498C4.81921 15.2579 5.6754 15.6302 6.45714 16.3685C7.80967 17.6094 11.0421 18.5214 14.0078 18.4966C18.4748 18.4531 20.0135 17.4729 20.0135 16.0583C20.0135 14.6437 18.4935 14.3025 13.5983 13.5331L9.4414 12.8569C4.74475 12.1124 1.3324 11.0638 1.3324 7.32266C1.3324 3.43877 5.6754 1.00049 12.5001 1.00049C15.3603 1.00049 17.7738 1.38515 20.0817 2.71908C20.7022 3.13476 21.3226 3.1844 21.3226 1.62092L21.3164 1.5961Z" fill="#E4B03A"/>
<path fill-rule="evenodd" clip-rule="evenodd" d="M80.2199 12.9871L80.2818 5.42412C80.2818 4.43143 79.7669 4.09019 78.2902 4.09019H76.5593V1.73877H87.5719V4.09019H86.1449C84.6682 4.09019 84.1533 4.43143 84.1533 5.42412V20.6494L79.8104 20.6122L65.857 7.38467V16.9889C65.857 17.9568 66.3719 18.3228 67.8485 18.3228H69.7657V20.6494H58.325V18.3228H60.2234C61.6938 18.3228 62.215 17.9568 62.215 16.9889V5.42412C62.215 4.43143 61.6938 4.09019 60.2234 4.09019H58.325V1.73877H68.2518L80.2446 12.9871H80.2199Z" fill="#E4B03A"/>
<path fill-rule="evenodd" clip-rule="evenodd" d="M43.292 0.857788C34.5068 0.857788 29.0222 4.74167 29.0222 10.977C29.0222 17.1006 34.4509 20.9597 43.0439 20.9597C52.1704 20.9597 57.4813 17.1564 57.4813 10.6668C57.4626 4.82853 51.7361 0.857788 43.292 0.857788ZM43.0935 18.4904C38.2294 18.4904 35.456 15.686 35.456 10.8343C35.456 6.10041 38.3534 3.29607 43.3355 3.29607C48.119 3.29607 50.9171 6.16245 50.9171 11.0328C50.9171 15.7977 48.0756 18.478 43.0935 18.478V18.4904Z" fill="#E4B03A"/>
</g>
</g>
<defs>
<clipPath id="clip0_31_256">
<rect width="117" height="21" fill="white" transform="translate(0.5 0.5)"/>
</clipPath>
</defs>
</svg>
