<svg width="17" height="17" viewBox="0 0 17 17" fill="none" xmlns="http://www.w3.org/2000/svg">
<path d="M14.0002 8.5C13.9998 7.68956 13.8203 6.88922 13.4745 6.15624C13.1288 5.42325 12.6253 4.77573 12.0002 4.26V2C12.0002 1.73478 11.8948 1.48043 11.7073 1.29289C11.5197 1.10536 11.2654 1 11.0002 1H6.00015C5.73493 1 5.48058 1.10536 5.29304 1.29289C5.10551 1.48043 5.00015 1.73478 5.00015 2V4.26C4.37205 4.77594 3.86611 5.42468 3.51875 6.15956C3.17138 6.89443 2.99121 7.69716 2.99121 8.51C2.99121 9.32284 3.17138 10.1256 3.51875 10.8604C3.86611 11.5953 4.37205 12.2441 5.00015 12.76V15C5.00015 15.2652 5.10551 15.5196 5.29304 15.7071C5.48058 15.8946 5.73493 16 6.00015 16H11.0002C11.2654 16 11.5197 15.8946 11.7073 15.7071C11.8948 15.5196 12.0002 15.2652 12.0002 15V12.74C12.6253 12.2243 13.1288 11.5767 13.4745 10.8438C13.8203 10.1108 13.9998 9.31044 14.0002 8.5ZM6.00015 2H11.0002V3.605C10.2267 3.20758 9.3697 3.00027 8.50015 3.00027C7.6306 3.00027 6.77357 3.20758 6.00015 3.605V2ZM4.00015 8.5C4.00015 7.60998 4.26407 6.73995 4.75854 5.99993C5.253 5.25991 5.95581 4.68314 6.77808 4.34254C7.60034 4.00195 8.50514 3.91283 9.37806 4.08647C10.251 4.2601 11.0528 4.68868 11.6821 5.31802C12.3115 5.94736 12.7401 6.74918 12.9137 7.62209C13.0873 8.49501 12.9982 9.39981 12.6576 10.2221C12.317 11.0443 11.7402 11.7471 11.0002 12.2416C10.2602 12.7361 9.39017 13 8.50015 13C7.30668 13 6.16208 12.5259 5.31817 11.682C4.47426 10.8381 4.00015 9.69347 4.00015 8.5ZM11.0002 15H6.00015V13.395C6.77357 13.7924 7.6306 13.9997 8.50015 13.9997C9.3697 13.9997 10.2267 13.7924 11.0002 13.395V15Z" fill="#66789C"/>
<path d="M9.56001 10.265C9.65369 10.3581 9.78042 10.4104 9.91251 10.4104C10.0446 10.4104 10.1713 10.3581 10.265 10.265C10.3581 10.1713 10.4104 10.0446 10.4104 9.9125C10.4104 9.78041 10.3581 9.65368 10.265 9.56L9.00001 8.295V6.5C9.00001 6.36739 8.94733 6.24021 8.85356 6.14645C8.75979 6.05268 8.63262 6 8.50001 6C8.3674 6 8.24022 6.05268 8.14646 6.14645C8.05269 6.24021 8.00001 6.36739 8.00001 6.5V8.5C7.99963 8.5658 8.01224 8.63103 8.03712 8.69195C8.06201 8.75287 8.09867 8.80828 8.14501 8.855L9.56001 10.265Z" fill="#66789C"/>
</svg>
