<svg width="17" height="17" viewBox="0 0 17 17" fill="none" xmlns="http://www.w3.org/2000/svg">
<g clip-path="url(#clip0_288_2052)">
<path d="M14 6.49999C14.0016 5.60183 13.7832 4.71693 13.364 3.92263C12.9447 3.12833 12.3373 2.4488 11.5948 1.94341C10.8523 1.43802 9.99735 1.12215 9.10463 1.02342C8.2119 0.924681 7.30858 1.04607 6.4736 1.37699C5.63862 1.70791 4.89738 2.23828 4.31466 2.92176C3.73195 3.60523 3.32548 4.42102 3.13078 5.29783C2.93608 6.17464 2.95908 7.08579 3.19776 7.95166C3.43644 8.81753 3.88354 9.61178 4.49999 10.265V15.5C4.50006 15.5825 4.52055 15.6637 4.55964 15.7364C4.59873 15.8091 4.65521 15.871 4.72403 15.9165C4.79285 15.9621 4.87187 15.9899 4.95405 15.9975C5.03622 16.0051 5.119 15.9922 5.19499 15.96L8.49999 14.545L11.805 15.96C11.8667 15.9863 11.933 15.9999 12 16C12.098 15.9992 12.1936 15.9697 12.275 15.915C12.3438 15.8697 12.4003 15.8081 12.4396 15.7357C12.4788 15.6633 12.4996 15.5823 12.5 15.5V10.265C13.461 9.24668 13.9975 7.90017 14 6.49999ZM8.49999 1.99999C9.39001 1.99999 10.26 2.26391 11.0001 2.75838C11.7401 3.25284 12.3169 3.95565 12.6574 4.77792C12.998 5.60018 13.0872 6.50498 12.9135 7.3779C12.7399 8.25081 12.3113 9.05263 11.682 9.68197C11.0526 10.3113 10.2508 10.7399 9.3779 10.9135C8.50498 11.0872 7.60018 10.998 6.77792 10.6574C5.95565 10.3169 5.25284 9.74008 4.75838 9.00006C4.26391 8.26004 3.99999 7.39001 3.99999 6.49999C3.99999 5.30652 4.4741 4.16192 5.31801 3.31801C6.16192 2.4741 7.30652 1.99999 8.49999 1.99999ZM8.69499 13.54C8.6333 13.5139 8.56699 13.5004 8.49999 13.5004C8.433 13.5004 8.36668 13.5139 8.30499 13.54L5.49999 14.74V11.105C6.3927 11.686 7.43489 11.9952 8.49999 11.9952C9.56509 11.9952 10.6073 11.686 11.5 11.105V14.74L8.69499 13.54Z" fill="#66789C"/>
<path d="M5.50011 6.91499L6.16011 7.41499C6.19206 7.44179 6.21531 7.47751 6.22689 7.51758C6.23846 7.55766 6.23785 7.60027 6.22511 7.63999L5.97511 8.44499C5.89585 8.68778 5.89681 8.94964 5.97785 9.19185C6.05888 9.43406 6.2157 9.64377 6.42511 9.78999C6.61679 9.92974 6.84789 10.005 7.08511 10.005C7.33439 10.0028 7.57634 9.92043 7.77511 9.76999L8.43511 9.26999C8.46108 9.25051 8.49265 9.23999 8.52511 9.23999C8.55757 9.23999 8.58915 9.25051 8.61511 9.26999L9.27511 9.76999C9.46984 9.91604 9.70669 9.99499 9.95011 9.99499C10.1935 9.99499 10.4304 9.91604 10.6251 9.76999C10.8345 9.62377 10.9913 9.41406 11.0724 9.17185C11.1534 8.92964 11.1544 8.66778 11.0751 8.42499L10.8251 7.61999C10.8124 7.58027 10.8118 7.53766 10.8233 7.49758C10.8349 7.45751 10.8582 7.42179 10.8901 7.39499L11.5501 6.89499C11.7541 6.74363 11.9041 6.53072 11.9779 6.28765C12.0517 6.04459 12.0455 5.78423 11.9601 5.54499C11.8859 5.31147 11.7393 5.10763 11.5415 4.96292C11.3438 4.81821 11.1051 4.74013 10.8601 4.73999H10.0001C9.96376 4.73837 9.92881 4.72547 9.90013 4.70306C9.87145 4.68066 9.85047 4.64987 9.84011 4.61499L9.59011 3.80999C9.52083 3.56911 9.37507 3.3573 9.17484 3.20654C8.9746 3.05578 8.73076 2.97424 8.48011 2.97424C8.22947 2.97424 7.98562 3.05578 7.78539 3.20654C7.58515 3.3573 7.43939 3.56911 7.37011 3.80999L7.12011 4.61499C7.10975 4.64987 7.08877 4.68066 7.06009 4.70306C7.03141 4.72547 6.99647 4.73837 6.96011 4.73999H6.16511C5.92008 4.74013 5.68144 4.81821 5.4837 4.96292C5.28596 5.10763 5.13936 5.31147 5.06511 5.54499C4.97748 5.78946 4.97258 6.05595 5.05117 6.30347C5.12977 6.551 5.2875 6.76585 5.50011 6.91499ZM6.00011 5.88499C6.00699 5.85011 6.02564 5.81866 6.05295 5.7959C6.08026 5.77314 6.11457 5.76046 6.15011 5.75999H7.00011C7.24918 5.75986 7.4916 5.67957 7.6915 5.531C7.89141 5.38242 8.03818 5.17345 8.11011 4.93499L8.36511 4.12499C8.37392 4.09057 8.39394 4.06006 8.422 4.03828C8.45007 4.0165 8.48458 4.00467 8.52011 4.00467C8.55564 4.00467 8.59015 4.0165 8.61822 4.03828C8.64628 4.06006 8.6663 4.09057 8.67511 4.12499L8.93011 4.93499C8.99994 5.16703 9.14069 5.37138 9.3326 5.51935C9.52451 5.66731 9.75793 5.75147 10.0001 5.75999H10.8151C10.8507 5.76046 10.885 5.77314 10.9123 5.7959C10.9396 5.81866 10.9582 5.85011 10.9651 5.88499C10.9819 5.92458 10.9851 5.96859 10.9742 6.01018C10.9634 6.05178 10.9391 6.08862 10.9051 6.11499L10.2451 6.61499C10.0478 6.76509 9.90164 6.97238 9.82648 7.2086C9.75132 7.44483 9.75084 7.69848 9.82511 7.93499L10.0801 8.73999C10.0953 8.78117 10.0962 8.82628 10.0826 8.86802C10.069 8.90976 10.0417 8.94569 10.0051 8.96999C9.98069 8.99077 9.94967 9.00218 9.91761 9.00218C9.88555 9.00218 9.85453 8.99077 9.83011 8.96999L9.17011 8.46999C8.97275 8.31673 8.72999 8.23354 8.48011 8.23354C8.23023 8.23354 7.98747 8.31673 7.79011 8.46999L7.13011 8.96999C7.10569 8.99077 7.07468 9.00218 7.04261 9.00218C7.01055 9.00218 6.97953 8.99077 6.95511 8.96999C6.91854 8.94569 6.89124 8.90976 6.87763 8.86802C6.86402 8.82628 6.86489 8.78117 6.88011 8.73999L7.13511 7.93499C7.20938 7.69848 7.2089 7.44483 7.13374 7.2086C7.05858 6.97238 6.91239 6.76509 6.71511 6.61499L6.05511 6.11499C6.02201 6.08797 5.9987 6.05083 5.98877 6.00927C5.97883 5.96772 5.98282 5.92405 6.00011 5.88499Z" fill="#66789C"/>
</g>
<defs>
<clipPath id="clip0_288_2052">
<rect width="16" height="16" fill="white" transform="translate(0.5 0.5)"/>
</clipPath>
</defs>
</svg>
