<svg width="17" height="17" viewBox="0 0 17 17" fill="none" xmlns="http://www.w3.org/2000/svg">
<g clip-path="url(#clip0_288_2055)">
<path d="M15.5 6H14V3.5C14.0024 3.38303 13.9636 3.26893 13.8905 3.17757C13.8174 3.08621 13.7146 3.02338 13.6 3L3.6 1C3.52737 0.985691 3.45246 0.987686 3.38069 1.00584C3.30893 1.024 3.24209 1.05787 3.185 1.105C3.12633 1.15259 3.0792 1.21285 3.04716 1.28127C3.01512 1.34968 2.99899 1.42447 3 1.5V6H1.5C1.36739 6 1.24022 6.05268 1.14645 6.14645C1.05268 6.24022 1 6.36739 1 6.5V15.5C1 15.6326 1.05268 15.7598 1.14645 15.8536C1.24022 15.9473 1.36739 16 1.5 16H15.5C15.6326 16 15.7598 15.9473 15.8536 15.8536C15.9473 15.7598 16 15.6326 16 15.5V6.5C16 6.36739 15.9473 6.24022 15.8536 6.14645C15.7598 6.05268 15.6326 6 15.5 6ZM2 7H3V15H2V7ZM4 6.5V2.11L13 3.91V15H10.5V12C10.5 11.8674 10.4473 11.7402 10.3535 11.6464C10.2598 11.5527 10.1326 11.5 10 11.5H7C6.86739 11.5 6.74021 11.5527 6.64645 11.6464C6.55268 11.7402 6.5 11.8674 6.5 12V15H4V6.5ZM7.5 15V12.5H9.5V15H7.5ZM15 15H14V7H15V15Z" fill="#66789C"/>
<path d="M5.75 7H7.75C7.88261 7 8.00979 6.94732 8.10355 6.85355C8.19732 6.75979 8.25 6.63261 8.25 6.5V4.5C8.25 4.36739 8.19732 4.24021 8.10355 4.14645C8.00979 4.05268 7.88261 4 7.75 4H5.75C5.61739 4 5.49021 4.05268 5.39645 4.14645C5.30268 4.24021 5.25 4.36739 5.25 4.5V6.5C5.25 6.63261 5.30268 6.75979 5.39645 6.85355C5.49021 6.94732 5.61739 7 5.75 7ZM6.25 5H7.25V6H6.25V5Z" fill="#66789C"/>
<path d="M7.75 10.5C7.88261 10.5 8.00979 10.4473 8.10355 10.3535C8.19732 10.2598 8.25 10.1326 8.25 10V8C8.25 7.86739 8.19732 7.74021 8.10355 7.64645C8.00979 7.55268 7.88261 7.5 7.75 7.5H5.75C5.61739 7.5 5.49021 7.55268 5.39645 7.64645C5.30268 7.74021 5.25 7.86739 5.25 8V10C5.25 10.1326 5.30268 10.2598 5.39645 10.3535C5.49021 10.4473 5.61739 10.5 5.75 10.5H7.75ZM6.25 8.5H7.25V9.5H6.25V8.5Z" fill="#66789C"/>
<path d="M9.25 7H11.25C11.3826 7 11.5098 6.94732 11.6036 6.85355C11.6973 6.75979 11.75 6.63261 11.75 6.5V4.5C11.75 4.36739 11.6973 4.24021 11.6036 4.14645C11.5098 4.05268 11.3826 4 11.25 4H9.25C9.11739 4 8.99021 4.05268 8.89645 4.14645C8.80268 4.24021 8.75 4.36739 8.75 4.5V6.5C8.75 6.63261 8.80268 6.75979 8.89645 6.85355C8.99021 6.94732 9.11739 7 9.25 7ZM9.75 5H10.75V6H9.75V5Z" fill="#66789C"/>
<path d="M9.25 10.5H11.25C11.3826 10.5 11.5098 10.4473 11.6036 10.3535C11.6973 10.2598 11.75 10.1326 11.75 10V8C11.75 7.86739 11.6973 7.74021 11.6036 7.64645C11.5098 7.55268 11.3826 7.5 11.25 7.5H9.25C9.11739 7.5 8.99021 7.55268 8.89645 7.64645C8.80268 7.74021 8.75 7.86739 8.75 8V10C8.75 10.1326 8.80268 10.2598 8.89645 10.3535C8.99021 10.4473 9.11739 10.5 9.25 10.5ZM9.75 8.5H10.75V9.5H9.75V8.5Z" fill="#66789C"/>
</g>
<defs>
<clipPath id="clip0_288_2055">
<rect width="16" height="16" fill="white" transform="translate(0.5 0.5)"/>
</clipPath>
</defs>
</svg>
