<svg width="17" height="17" viewBox="0 0 17 17" fill="none" xmlns="http://www.w3.org/2000/svg">
<path d="M15.5 13H11.5C12.0186 12.6051 12.4534 12.1107 12.7787 11.5458C13.1041 10.9809 13.3136 10.3568 13.395 9.71001H13.52C14.1435 9.70005 14.7407 9.45744 15.1945 9.02981C15.6483 8.60218 15.926 8.0204 15.9729 7.39862C16.0199 6.77684 15.8328 6.15995 15.4484 5.66901C15.0639 5.17807 14.5099 4.84852 13.895 4.74501L13.965 4.09001C13.9786 3.95098 13.963 3.81062 13.9191 3.678C13.8752 3.54538 13.8039 3.42343 13.71 3.32001C13.6134 3.21571 13.4956 3.13321 13.3645 3.07803C13.2335 3.02285 13.0921 2.99625 12.95 3.00001H4.05C3.91046 3.00034 3.77253 3.02988 3.64508 3.08671C3.51763 3.14354 3.40349 3.22642 3.31 3.33001C3.21607 3.43343 3.14484 3.55538 3.10092 3.688C3.057 3.82062 3.04136 3.96098 3.055 4.10001L3.605 9.57001C3.66698 10.2416 3.86735 10.893 4.19349 11.4834C4.51963 12.0737 4.96447 12.5901 5.5 13H1.5C1.36739 13 1.24022 13.0527 1.14645 13.1465C1.05268 13.2402 1 13.3674 1 13.5C1 13.6326 1.05268 13.7598 1.14645 13.8536C1.24022 13.9473 1.36739 14 1.5 14H15.5C15.6326 14 15.7598 13.9473 15.8536 13.8536C15.9473 13.7598 16 13.6326 16 13.5C16 13.3674 15.9473 13.2402 15.8536 13.1465C15.7598 13.0527 15.6326 13 15.5 13ZM15 7.22001C15 7.61784 14.842 7.99937 14.5607 8.28067C14.2794 8.56198 13.8978 8.72002 13.5 8.72002L13.8 5.75001C14.1388 5.81917 14.4433 6.00327 14.662 6.27114C14.8807 6.53902 15.0001 6.87422 15 7.22001ZM8.5 6.04001L9.25 6.34001V8.00001H7.75V6.34001L8.5 6.04001ZM4.6 9.47002L4.05 4.00001H8V5.16001L7.065 5.53501C6.97197 5.57207 6.8922 5.6362 6.83604 5.71911C6.77988 5.80201 6.7499 5.89988 6.75 6.00001V8.50001C6.75 8.63262 6.80268 8.7598 6.89645 8.85357C6.99021 8.94734 7.11739 9.00001 7.25 9.00001H9.75C9.88261 9.00001 10.0098 8.94734 10.1035 8.85357C10.1973 8.7598 10.25 8.63262 10.25 8.50001V6.00001C10.2501 5.89988 10.2201 5.80201 10.164 5.71911C10.1078 5.6362 10.028 5.57207 9.935 5.53501L9 5.16001V4.00001H12.95L12.4 9.47002C12.302 10.4362 11.8489 11.3317 11.1283 11.9829C10.4078 12.634 9.47118 12.9945 8.5 12.9945C7.52882 12.9945 6.59222 12.634 5.87168 11.9829C5.15114 11.3317 4.69798 10.4362 4.6 9.47002Z" fill="#66789C"/>
</svg>
