<svg width="17" height="17" viewBox="0 0 17 17" fill="none" xmlns="http://www.w3.org/2000/svg">
<path d="M10.75 8.49999C10.0429 8.18054 9.2759 8.01532 8.5 8.01532C7.7241 8.01532 6.95709 8.18054 6.25 8.49999C5.28486 8.93267 4.46496 9.63447 3.88853 10.5213C3.3121 11.4081 3.0036 12.4423 3 13.5V14.5C3 14.8978 3.15804 15.2793 3.43934 15.5606C3.72064 15.842 4.10218 16 4.5 16H12.5C12.8978 16 13.2794 15.842 13.5607 15.5606C13.842 15.2793 14 14.8978 14 14.5V13.5C13.9964 12.4423 13.6879 11.4081 13.1115 10.5213C12.535 9.63447 11.7151 8.93267 10.75 8.49999ZM9.64 9.14999L8.5 10.295L7.36 9.14999C8.10683 8.94989 8.89317 8.94989 9.64 9.14999ZM8.5 14.72L7.83 13.915L8.5 12.3L9.17 13.915L8.5 14.72ZM4 14.5V13.5C4.00008 12.6917 4.21788 11.8983 4.63052 11.2032C5.04316 10.5082 5.6354 9.93708 6.345 9.54999L7.91 11.115L6.79 13.81C6.75694 13.8925 6.74646 13.9823 6.75964 14.0702C6.77283 14.158 6.80919 14.2408 6.865 14.31L7.435 15H4.5C4.36739 15 4.24021 14.9473 4.14645 14.8535C4.05268 14.7598 4 14.6326 4 14.5ZM13 14.5C13 14.6326 12.9473 14.7598 12.8536 14.8535C12.7598 14.9473 12.6326 15 12.5 15H9.565L10.135 14.32C10.1908 14.2508 10.2272 14.168 10.2404 14.0802C10.2535 13.9923 10.2431 13.9025 10.21 13.82L9.09 11.125L10.655 9.55999C11.3631 9.94627 11.9544 10.5158 12.3669 11.2089C12.7795 11.9021 12.9981 12.6934 13 13.5V14.5Z" fill="#66789C"/>
<path d="M8.5 7C9.09334 7 9.67336 6.82405 10.1667 6.49441C10.6601 6.16477 11.0446 5.69623 11.2716 5.14805C11.4987 4.59987 11.5581 3.99667 11.4424 3.41473C11.3266 2.83279 11.0409 2.29824 10.6213 1.87868C10.2018 1.45912 9.66721 1.1734 9.08527 1.05765C8.50333 0.94189 7.90013 1.0013 7.35195 1.22836C6.80377 1.45543 6.33524 1.83994 6.00559 2.33329C5.67595 2.82664 5.5 3.40666 5.5 4C5.5 4.79565 5.81607 5.55871 6.37868 6.12132C6.94129 6.68393 7.70435 7 8.5 7ZM8.5 2C8.89556 2 9.28224 2.1173 9.61114 2.33706C9.94004 2.55682 10.1964 2.86918 10.3478 3.23463C10.4991 3.60009 10.5387 4.00222 10.4616 4.39018C10.3844 4.77814 10.1939 5.13451 9.91421 5.41422C9.63451 5.69392 9.27814 5.8844 8.89018 5.96157C8.50222 6.03874 8.10009 5.99914 7.73463 5.84776C7.36918 5.69639 7.05682 5.44004 6.83706 5.11114C6.6173 4.78224 6.5 4.39556 6.5 4C6.5 3.46957 6.71071 2.96086 7.08579 2.58579C7.46086 2.21071 7.96957 2 8.5 2Z" fill="#66789C"/>
</svg>
