<svg width="233" height="202" viewBox="0 0 233 202" fill="none" xmlns="http://www.w3.org/2000/svg">
<g clip-path="url(#clip0_288_2066)">
<mask id="mask0_288_2066" style="mask-type:luminance" maskUnits="userSpaceOnUse" x="0" y="0" width="233" height="202">
<path d="M232.5 0.5H0.5V201.5H232.5V0.5Z" fill="white"/>
</mask>
<g mask="url(#mask0_288_2066)">
<path d="M183.703 17.0985C183.442 16.9245 183.178 16.7595 182.918 16.5914C175.381 11.7654 167.302 7.84485 158.85 4.91067L156.89 31.9808H144.464V0.959069C143.682 0.797045 142.894 0.644022 142.106 0.5V31.9808H127.34C119.211 31.9808 111.416 28.7478 105.668 22.9932C99.9198 17.2385 96.6907 9.43348 96.6907 1.29515C95.8995 1.46618 95.1143 1.64918 94.3292 1.84421V31.9808H82.3026L80.4355 6.16786C71.7489 9.50326 63.5021 13.8895 55.8788 19.2288C55.747 19.3189 55.6151 19.4119 55.4862 19.5019C54.8239 19.967 54.1706 20.441 53.5203 20.9211V124.194H88.9647L88.3383 115.507L84.8919 67.8152H154.297L150.851 115.507L150.224 124.194H185.276V18.1427C184.755 17.7886 184.23 17.4406 183.703 17.0985ZM94.3292 59.939H84.3225L82.4734 34.3451H94.3292V59.939ZM142.106 59.939H125.299V59.4319C125.299 59.1882 125.251 58.9468 125.158 58.7216C125.065 58.4964 124.928 58.2919 124.756 58.1197C124.583 57.9474 124.379 57.8109 124.154 57.7179C123.929 57.6249 123.688 57.5772 123.444 57.5776H116.138C115.894 57.5775 115.654 57.6254 115.429 57.7186C115.204 57.8118 115 57.9483 114.828 58.1205C114.656 58.2927 114.519 58.4972 114.426 58.7222C114.333 58.9472 114.285 59.1884 114.286 59.4319V59.939H96.6907V34.3451H142.106V59.939ZM144.464 59.939V34.3451H156.719L154.87 59.939H144.464Z" fill="#F2F2F2"/>
<path d="M222.196 188.193L222.43 182.92C224.872 181.613 227.596 180.922 230.365 180.909C226.554 184.028 227.031 190.041 224.447 194.236C223.631 195.539 222.533 196.64 221.234 197.46C219.935 198.279 218.468 198.796 216.943 198.971L213.754 200.926C213.316 198.483 213.413 195.975 214.037 193.573C214.66 191.171 215.797 188.934 217.368 187.014C218.26 185.946 219.282 184.995 220.412 184.183C221.176 186.199 222.196 188.193 222.196 188.193Z" fill="#F2F2F2"/>
<path d="M51.0875 182.414L43.3913 180.081C42.382 175.976 42.3889 171.686 43.4115 167.583C46.5808 174.397 55.6365 175.957 60.8555 181.36C62.4704 183.058 63.683 185.098 64.4035 187.328C65.124 189.559 65.3339 191.923 65.0176 194.246L66.7022 199.701C62.932 199.429 59.2655 198.341 55.9556 196.513C52.6456 194.686 49.7707 192.161 47.529 189.114C46.2883 187.392 45.2691 185.521 44.4956 183.544C47.7597 183.173 51.0875 182.414 51.0875 182.414Z" fill="#F2F2F2"/>
<path d="M216.207 200.063C216.206 200.223 216.143 200.376 216.031 200.489C215.975 200.545 215.909 200.589 215.837 200.618C215.764 200.648 215.686 200.664 215.608 200.663H213.199C213.12 200.664 213.042 200.648 212.969 200.618C212.896 200.588 212.83 200.544 212.774 200.488C212.718 200.432 212.674 200.366 212.644 200.293C212.614 200.22 212.599 200.142 212.599 200.063V127.11C212.599 125.502 212.06 124.197 211.397 124.194H30.8366C30.1713 124.197 29.6348 125.502 29.6318 127.11V199.616C29.6313 199.765 29.5756 199.909 29.4754 200.019C29.3751 200.13 29.2376 200.199 29.0894 200.213C28.6039 200.261 28.1184 200.303 27.6359 200.342C27.6239 200.342 27.6119 200.345 27.5999 200.345C27.3362 200.369 27.0725 200.387 26.8087 200.408H26.8057C26.6679 200.159 26.536 199.904 26.4012 199.649C26.3579 199.563 26.3354 199.467 26.3352 199.37V123.327C26.3352 122.883 26.3532 122.435 26.3832 121.994C26.4259 121.389 26.501 120.786 26.6079 120.188C27.1144 117.401 28.2592 115.513 29.5599 115.507H212.671C212.861 115.509 213.048 115.548 213.222 115.624C213.478 115.738 213.709 115.9 213.903 116.101C214.166 116.375 214.39 116.683 214.571 117.017C215.212 118.148 215.671 119.834 215.833 121.796C215.833 121.814 215.836 121.832 215.836 121.85C215.878 122.336 215.899 122.832 215.896 123.327L215.938 129.757L215.965 133.591L216.046 145.623L216.076 149.896L216.207 200.063Z" fill="#E6E6E6"/>
<path d="M232.143 201.408L149.503 201.5C149.409 201.5 149.318 201.462 149.252 201.395C149.185 201.328 149.148 201.237 149.148 201.143C149.148 201.048 149.185 200.957 149.252 200.89C149.318 200.823 149.409 200.786 149.503 200.785L232.143 200.693C232.238 200.694 232.328 200.731 232.395 200.798C232.461 200.865 232.499 200.956 232.499 201.051C232.499 201.145 232.461 201.236 232.395 201.303C232.328 201.37 232.238 201.407 232.143 201.408Z" fill="#CACACA"/>
<path d="M129.567 94.1926H114.931C114.724 94.1929 114.525 94.2755 114.379 94.4223C114.233 94.5691 114.151 94.768 114.151 94.9752V118.124H130.349V94.9752C130.349 94.8725 130.329 94.7706 130.29 94.6757C130.25 94.5807 130.193 94.4944 130.12 94.4217C130.048 94.349 129.961 94.2913 129.866 94.252C129.772 94.2127 129.67 94.1925 129.567 94.1926ZM122.298 107.345C121.841 107.343 121.402 107.16 121.079 106.836C120.755 106.512 120.572 106.073 120.57 105.615V102.945C120.57 102.486 120.752 102.046 121.076 101.721C121.4 101.397 121.84 101.215 122.298 101.215C122.757 101.215 123.196 101.397 123.52 101.721C123.845 102.046 124.027 102.486 124.027 102.945V105.615C124.024 106.073 123.842 106.512 123.518 106.836C123.194 107.16 122.756 107.343 122.298 107.345Z" fill="#184274"/>
<path d="M153.804 58.0667H91.2392C90.7016 58.0676 90.1864 58.2817 89.8063 58.6623C89.4262 59.0428 89.2123 59.5587 89.2114 60.0969V102.366C89.2119 102.904 89.4257 103.42 89.8059 103.801C90.1861 104.181 90.7015 104.395 91.2392 104.396H153.804C154.341 104.395 154.857 104.181 155.237 103.801C155.617 103.42 155.831 102.904 155.832 102.366V60.0969C155.831 59.5587 155.617 59.0428 155.237 58.6623C154.857 58.2817 154.341 58.0676 153.804 58.0667Z" fill="#4F5E64"/>
<path d="M153.28 59.5327H91.7607C91.4729 59.5333 91.1971 59.6482 90.9938 59.8522C90.7905 60.0561 90.6763 60.3325 90.6763 60.6206V101.842C90.6768 102.13 90.7912 102.406 90.9944 102.609C91.1977 102.813 91.4732 102.927 91.7607 102.928H153.28C153.568 102.927 153.843 102.813 154.047 102.609C154.25 102.406 154.364 102.13 154.365 101.842V60.6206C154.365 60.3325 154.251 60.0561 154.047 59.8522C153.844 59.6482 153.568 59.5333 153.28 59.5327Z" fill="white"/>
<path d="M114.101 117.383V119.617C114.101 119.732 114.147 119.843 114.229 119.925C114.311 120.007 114.421 120.053 114.537 120.053H129.963C130.079 120.053 130.189 120.007 130.271 119.925C130.353 119.843 130.399 119.732 130.399 119.617V117.383H114.101Z" fill="#4F5E64"/>
<path d="M141.299 120.83H104.698C104.597 120.83 104.498 120.808 104.408 120.765C104.318 120.722 104.238 120.659 104.175 120.581C104.112 120.503 104.067 120.412 104.043 120.315C104.02 120.217 104.018 120.116 104.039 120.018L104.607 117.317C104.639 117.166 104.722 117.03 104.842 116.933C104.962 116.836 105.111 116.782 105.265 116.782H140.731C140.885 116.782 141.034 116.836 141.154 116.933C141.274 117.03 141.357 117.166 141.389 117.317L141.957 120.018C141.978 120.116 141.976 120.217 141.953 120.315C141.929 120.412 141.884 120.503 141.821 120.581C141.758 120.659 141.679 120.722 141.588 120.765C141.498 120.808 141.399 120.83 141.299 120.83Z" fill="#184274"/>
<path d="M106.506 117.268H105.672C105.591 117.268 105.525 117.334 105.525 117.415V117.799C105.525 117.88 105.591 117.945 105.672 117.945H106.506C106.587 117.945 106.653 117.88 106.653 117.799V117.415C106.653 117.334 106.587 117.268 106.506 117.268Z" fill="#4F5E64"/>
<path d="M108.761 117.268H107.926C107.845 117.268 107.78 117.334 107.78 117.415V117.799C107.78 117.88 107.845 117.945 107.926 117.945H108.761C108.842 117.945 108.907 117.88 108.907 117.799V117.415C108.907 117.334 108.842 117.268 108.761 117.268Z" fill="#4F5E64"/>
<path d="M111.015 117.268H110.181C110.1 117.268 110.034 117.334 110.034 117.415V117.799C110.034 117.88 110.1 117.945 110.181 117.945H111.015C111.096 117.945 111.162 117.88 111.162 117.799V117.415C111.162 117.334 111.096 117.268 111.015 117.268Z" fill="#4F5E64"/>
<path d="M113.27 117.268H112.435C112.354 117.268 112.289 117.334 112.289 117.415V117.799C112.289 117.88 112.354 117.945 112.435 117.945H113.27C113.351 117.945 113.416 117.88 113.416 117.799V117.415C113.416 117.334 113.351 117.268 113.27 117.268Z" fill="#4F5E64"/>
<path d="M115.524 117.268H114.69C114.609 117.268 114.543 117.334 114.543 117.415V117.799C114.543 117.88 114.609 117.945 114.69 117.945H115.524C115.605 117.945 115.671 117.88 115.671 117.799V117.415C115.671 117.334 115.605 117.268 115.524 117.268Z" fill="#4F5E64"/>
<path d="M117.779 117.268H116.944C116.864 117.268 116.798 117.334 116.798 117.415V117.799C116.798 117.88 116.864 117.945 116.944 117.945H117.779C117.86 117.945 117.925 117.88 117.925 117.799V117.415C117.925 117.334 117.86 117.268 117.779 117.268Z" fill="#4F5E64"/>
<path d="M120.034 117.268H119.199C119.118 117.268 119.053 117.334 119.053 117.415V117.799C119.053 117.88 119.118 117.945 119.199 117.945H120.034C120.114 117.945 120.18 117.88 120.18 117.799V117.415C120.18 117.334 120.114 117.268 120.034 117.268Z" fill="#4F5E64"/>
<path d="M122.288 117.268H121.453C121.373 117.268 121.307 117.334 121.307 117.415V117.799C121.307 117.88 121.373 117.945 121.453 117.945H122.288C122.369 117.945 122.434 117.88 122.434 117.799V117.415C122.434 117.334 122.369 117.268 122.288 117.268Z" fill="#4F5E64"/>
<path d="M124.543 117.268H123.708C123.627 117.268 123.562 117.334 123.562 117.415V117.799C123.562 117.88 123.627 117.945 123.708 117.945H124.543C124.623 117.945 124.689 117.88 124.689 117.799V117.415C124.689 117.334 124.623 117.268 124.543 117.268Z" fill="#4F5E64"/>
<path d="M126.797 117.268H125.962C125.882 117.268 125.816 117.334 125.816 117.415V117.799C125.816 117.88 125.882 117.945 125.962 117.945H126.797C126.878 117.945 126.943 117.88 126.943 117.799V117.415C126.943 117.334 126.878 117.268 126.797 117.268Z" fill="#4F5E64"/>
<path d="M129.052 117.268H128.217C128.136 117.268 128.071 117.334 128.071 117.415V117.799C128.071 117.88 128.136 117.945 128.217 117.945H129.052C129.133 117.945 129.198 117.88 129.198 117.799V117.415C129.198 117.334 129.133 117.268 129.052 117.268Z" fill="#4F5E64"/>
<path d="M131.306 117.268H130.472C130.391 117.268 130.325 117.334 130.325 117.415V117.799C130.325 117.88 130.391 117.945 130.472 117.945H131.306C131.387 117.945 131.453 117.88 131.453 117.799V117.415C131.453 117.334 131.387 117.268 131.306 117.268Z" fill="#4F5E64"/>
<path d="M133.561 117.268H132.726C132.645 117.268 132.58 117.334 132.58 117.415V117.799C132.58 117.88 132.645 117.945 132.726 117.945H133.561C133.642 117.945 133.707 117.88 133.707 117.799V117.415C133.707 117.334 133.642 117.268 133.561 117.268Z" fill="#4F5E64"/>
<path d="M135.815 117.268H134.981C134.9 117.268 134.834 117.334 134.834 117.415V117.799C134.834 117.88 134.9 117.945 134.981 117.945H135.815C135.896 117.945 135.962 117.88 135.962 117.799V117.415C135.962 117.334 135.896 117.268 135.815 117.268Z" fill="#4F5E64"/>
<path d="M138.07 117.268H137.235C137.154 117.268 137.089 117.334 137.089 117.415V117.799C137.089 117.88 137.154 117.945 137.235 117.945H138.07C138.151 117.945 138.216 117.88 138.216 117.799V117.415C138.216 117.334 138.151 117.268 138.07 117.268Z" fill="#4F5E64"/>
<path d="M140.324 117.268H139.49C139.409 117.268 139.344 117.334 139.344 117.415V117.799C139.344 117.88 139.409 117.945 139.49 117.945H140.324C140.405 117.945 140.471 117.88 140.471 117.799V117.415C140.471 117.334 140.405 117.268 140.324 117.268Z" fill="#4F5E64"/>
<path d="M106.48 118.397H105.645C105.564 118.397 105.499 118.462 105.499 118.543V118.927C105.499 119.008 105.564 119.074 105.645 119.074H106.48C106.56 119.074 106.626 119.008 106.626 118.927V118.543C106.626 118.462 106.56 118.397 106.48 118.397Z" fill="#4F5E64"/>
<path d="M108.734 118.397H107.899C107.819 118.397 107.753 118.462 107.753 118.543V118.927C107.753 119.008 107.819 119.074 107.899 119.074H108.734C108.815 119.074 108.88 119.008 108.88 118.927V118.543C108.88 118.462 108.815 118.397 108.734 118.397Z" fill="#4F5E64"/>
<path d="M110.989 118.397H110.154C110.073 118.397 110.008 118.462 110.008 118.543V118.927C110.008 119.008 110.073 119.074 110.154 119.074H110.989C111.07 119.074 111.135 119.008 111.135 118.927V118.543C111.135 118.462 111.07 118.397 110.989 118.397Z" fill="#4F5E64"/>
<path d="M113.243 118.397H112.409C112.328 118.397 112.262 118.462 112.262 118.543V118.927C112.262 119.008 112.328 119.074 112.409 119.074H113.243C113.324 119.074 113.39 119.008 113.39 118.927V118.543C113.39 118.462 113.324 118.397 113.243 118.397Z" fill="#4F5E64"/>
<path d="M115.498 118.397H114.663C114.582 118.397 114.517 118.462 114.517 118.543V118.927C114.517 119.008 114.582 119.074 114.663 119.074H115.498C115.579 119.074 115.644 119.008 115.644 118.927V118.543C115.644 118.462 115.579 118.397 115.498 118.397Z" fill="#4F5E64"/>
<path d="M117.752 118.397H116.918C116.837 118.397 116.771 118.462 116.771 118.543V118.927C116.771 119.008 116.837 119.074 116.918 119.074H117.752C117.833 119.074 117.899 119.008 117.899 118.927V118.543C117.899 118.462 117.833 118.397 117.752 118.397Z" fill="#4F5E64"/>
<path d="M120.007 118.397H119.172C119.092 118.397 119.026 118.462 119.026 118.543V118.927C119.026 119.008 119.092 119.074 119.172 119.074H120.007C120.088 119.074 120.153 119.008 120.153 118.927V118.543C120.153 118.462 120.088 118.397 120.007 118.397Z" fill="#4F5E64"/>
<path d="M122.261 118.397H121.427C121.346 118.397 121.281 118.462 121.281 118.543V118.927C121.281 119.008 121.346 119.074 121.427 119.074H122.261C122.342 119.074 122.408 119.008 122.408 118.927V118.543C122.408 118.462 122.342 118.397 122.261 118.397Z" fill="#4F5E64"/>
<path d="M124.516 118.397H123.681C123.601 118.397 123.535 118.462 123.535 118.543V118.927C123.535 119.008 123.601 119.074 123.681 119.074H124.516C124.597 119.074 124.662 119.008 124.662 118.927V118.543C124.662 118.462 124.597 118.397 124.516 118.397Z" fill="#4F5E64"/>
<path d="M126.771 118.397H125.936C125.855 118.397 125.79 118.462 125.79 118.543V118.927C125.79 119.008 125.855 119.074 125.936 119.074H126.771C126.851 119.074 126.917 119.008 126.917 118.927V118.543C126.917 118.462 126.851 118.397 126.771 118.397Z" fill="#4F5E64"/>
<path d="M129.025 118.397H128.19C128.11 118.397 128.044 118.462 128.044 118.543V118.927C128.044 119.008 128.11 119.074 128.19 119.074H129.025C129.106 119.074 129.171 119.008 129.171 118.927V118.543C129.171 118.462 129.106 118.397 129.025 118.397Z" fill="#4F5E64"/>
<path d="M131.28 118.397H130.445C130.364 118.397 130.299 118.462 130.299 118.543V118.927C130.299 119.008 130.364 119.074 130.445 119.074H131.28C131.36 119.074 131.426 119.008 131.426 118.927V118.543C131.426 118.462 131.36 118.397 131.28 118.397Z" fill="#4F5E64"/>
<path d="M133.534 118.397H132.7C132.619 118.397 132.553 118.462 132.553 118.543V118.927C132.553 119.008 132.619 119.074 132.7 119.074H133.534C133.615 119.074 133.68 119.008 133.68 118.927V118.543C133.68 118.462 133.615 118.397 133.534 118.397Z" fill="#4F5E64"/>
<path d="M135.789 118.397H134.954C134.873 118.397 134.808 118.462 134.808 118.543V118.927C134.808 119.008 134.873 119.074 134.954 119.074H135.789C135.87 119.074 135.935 119.008 135.935 118.927V118.543C135.935 118.462 135.87 118.397 135.789 118.397Z" fill="#4F5E64"/>
<path d="M138.043 118.397H137.209C137.128 118.397 137.062 118.462 137.062 118.543V118.927C137.062 119.008 137.128 119.074 137.209 119.074H138.043C138.124 119.074 138.19 119.008 138.19 118.927V118.543C138.19 118.462 138.124 118.397 138.043 118.397Z" fill="#4F5E64"/>
<path d="M140.298 118.397H139.463C139.382 118.397 139.317 118.462 139.317 118.543V118.927C139.317 119.008 139.382 119.074 139.463 119.074H140.298C140.379 119.074 140.444 119.008 140.444 118.927V118.543C140.444 118.462 140.379 118.397 140.298 118.397Z" fill="#4F5E64"/>
<path d="M125.192 119.751H116.467C116.386 119.751 116.321 119.817 116.321 119.897V120.282C116.321 120.363 116.386 120.428 116.467 120.428H125.192C125.273 120.428 125.339 120.363 125.339 120.282V119.897C125.339 119.817 125.273 119.751 125.192 119.751Z" fill="#4F5E64"/>
<path d="M150.189 65.2124H92.6251C92.5652 65.2112 92.5082 65.1865 92.4663 65.1436C92.4244 65.1008 92.4009 65.0432 92.4009 64.9832C92.4009 64.9233 92.4244 64.8657 92.4663 64.8228C92.5082 64.78 92.5652 64.7553 92.6251 64.7541H150.189C150.249 64.7553 150.306 64.78 150.348 64.8228C150.39 64.8657 150.413 64.9233 150.413 64.9832C150.413 65.0432 150.39 65.1008 150.348 65.1436C150.306 65.1865 150.249 65.2112 150.189 65.2124Z" fill="#CACACA"/>
<path d="M96.5437 63.5839C97.2846 63.5839 97.8853 62.9691 97.8853 62.2108C97.8853 61.4525 97.2846 60.8377 96.5437 60.8377C95.8028 60.8377 95.2021 61.4525 95.2021 62.2108C95.2021 62.9691 95.8028 63.5839 96.5437 63.5839Z" fill="#4F5E64"/>
<path d="M101.178 63.5839C101.919 63.5839 102.52 62.9691 102.52 62.2108C102.52 61.4525 101.919 60.8377 101.178 60.8377C100.437 60.8377 99.8364 61.4525 99.8364 62.2108C99.8364 62.9691 100.437 63.5839 101.178 63.5839Z" fill="#4F5E64"/>
<path d="M105.812 63.5839C106.553 63.5839 107.154 62.9691 107.154 62.2108C107.154 61.4525 106.553 60.8377 105.812 60.8377C105.072 60.8377 104.471 61.4525 104.471 62.2108C104.471 62.9691 105.072 63.5839 105.812 63.5839Z" fill="#4F5E64"/>
<path d="M147.399 61.1781H144.107C144.041 61.1794 143.979 61.2062 143.934 61.2529C143.888 61.2995 143.862 61.3623 143.862 61.4276C143.862 61.493 143.888 61.5557 143.934 61.6024C143.979 61.649 144.041 61.6759 144.107 61.6772H147.399C147.464 61.6759 147.526 61.649 147.572 61.6024C147.617 61.5557 147.643 61.493 147.643 61.4276C147.643 61.3623 147.617 61.2995 147.572 61.2529C147.526 61.2062 147.464 61.1794 147.399 61.1781Z" fill="#4F5E64"/>
<path d="M147.399 62.1148H144.107C144.041 62.1161 143.979 62.143 143.934 62.1897C143.888 62.2363 143.862 62.2991 143.862 62.3644C143.862 62.4297 143.888 62.4925 143.934 62.5391C143.979 62.5858 144.041 62.6127 144.107 62.614H147.399C147.464 62.6127 147.526 62.5858 147.572 62.5391C147.617 62.4925 147.643 62.4297 147.643 62.3644C147.643 62.2991 147.617 62.2363 147.572 62.1897C147.526 62.143 147.464 62.1161 147.399 62.1148Z" fill="#4F5E64"/>
<path d="M147.399 63.0504H144.107C144.041 63.0517 143.979 63.0786 143.934 63.1252C143.888 63.1719 143.862 63.2346 143.862 63.3C143.862 63.3653 143.888 63.428 143.934 63.4747C143.979 63.5214 144.041 63.5482 144.107 63.5495H147.399C147.464 63.5482 147.526 63.5214 147.572 63.4747C147.617 63.428 147.643 63.3653 147.643 63.3C147.643 63.2346 147.617 63.1719 147.572 63.1252C147.526 63.0786 147.464 63.0517 147.399 63.0504Z" fill="#4F5E64"/>
<path d="M126.005 78.6017H118.812C118.272 78.6017 117.834 79.0402 117.834 79.5811C117.834 80.122 118.272 80.5605 118.812 80.5605H126.005C126.546 80.5605 126.984 80.122 126.984 79.5811C126.984 79.0402 126.546 78.6017 126.005 78.6017Z" fill="#FFC000"/>
<path d="M130.652 82.5193H114.166C113.626 82.5193 113.188 82.9578 113.188 83.4987C113.188 84.0396 113.626 84.4781 114.166 84.4781H130.652C131.192 84.4781 131.63 84.0396 131.63 83.4987C131.63 82.9578 131.192 82.5193 130.652 82.5193Z" fill="#E6E6E6"/>
<path d="M130.652 86.4369H114.166C113.626 86.4369 113.188 86.8754 113.188 87.4163C113.188 87.9572 113.626 88.3957 114.166 88.3957H130.652C131.192 88.3957 131.63 87.9572 131.63 87.4163C131.63 86.8754 131.192 86.4369 130.652 86.4369Z" fill="#E6E6E6"/>
<path d="M93.1874 123.777H75.206C74.5701 123.777 73.9603 124.03 73.5107 124.48C73.061 124.93 72.8083 125.54 72.8083 126.177C72.8083 126.814 73.061 127.424 73.5107 127.874C73.9603 128.324 74.5701 128.577 75.206 128.577H81.7992V147.18H86.5942V128.577H93.1874C93.8233 128.577 94.4331 128.324 94.8827 127.874C95.3323 127.424 95.585 126.814 95.585 126.177C95.585 125.54 95.3323 124.93 94.8827 124.48C94.4331 124.03 93.8233 123.777 93.1874 123.777Z" fill="#4F5E64"/>
<path d="M105.055 157.483H56.9601C52.2975 157.466 47.7967 155.77 44.2797 152.705C40.7628 149.64 38.4646 145.411 37.8049 140.79L36.1024 134.52C32.5787 121.528 27.2114 109.109 20.1645 97.6434C16.9436 92.4065 15.2858 87.3372 19.0512 82.4566C19.0833 82.415 19.1148 82.374 19.1458 82.3336C22.1658 78.3982 37.1975 77.5462 42.0977 77.3805C42.2913 77.3739 42.4857 77.3707 42.6807 77.3707H72.5955C72.7907 77.3707 72.985 77.374 73.1784 77.3805C75.82 77.4576 78.3915 78.2493 80.6201 79.6714C82.8486 81.0935 84.6511 83.0931 85.8362 85.458C87.1008 87.8725 87.6889 90.5847 87.5382 93.3069C87.3875 96.029 86.5036 98.6595 84.9803 100.919C74.4721 116.723 71.2548 126.632 74.5486 133.05C77.7347 139.257 87.5013 142.43 105.285 143.037C110.064 143.2 112.257 146.925 112.272 150.318C112.287 153.623 110.178 157.272 105.513 157.473C105.362 157.48 105.209 157.483 105.055 157.483Z" fill="#4F5E64"/>
<path d="M65.1304 200.239H83.1119C83.7477 200.239 84.3576 199.986 84.8072 199.536C85.2568 199.086 85.5094 198.476 85.5094 197.839C85.5094 197.202 85.2568 196.592 84.8072 196.142C84.3576 195.691 83.7477 195.439 83.1119 195.439H76.5187V154.932H71.7236V195.439H65.1304C64.4946 195.439 63.8848 195.691 63.4351 196.142C62.9855 196.592 62.7329 197.202 62.7329 197.839C62.7329 198.476 62.9855 199.086 63.4351 199.536C63.8848 199.986 64.4946 200.239 65.1304 200.239Z" fill="#4F5E64"/>
<path d="M63.6945 78.8742L64.0714 81.1675C64.2497 82.2794 64.8954 90.1346 64.4171 91.0717C64.3749 89.322 61.1205 86.571 59.0118 87.1991L55.7025 87.9353L53.6486 88.3928L51.9769 88.7598L47.1192 89.8223C47.1107 89.7659 47.1045 89.7059 47.0961 89.6494C47.0846 89.5783 47.0731 89.5071 47.0587 89.4366C46.9682 88.9805 46.8033 88.5424 46.5704 88.14C46.5457 88.679 46.3868 89.2032 46.1081 89.665C46.1005 89.677 46.0939 89.6896 46.0883 89.7028C46.002 89.8426 45.9068 89.9766 45.8033 90.1042C45.7985 90.1075 45.7941 90.1115 45.7904 90.116C45.7904 90.116 44.7923 74.1866 44.8968 74.0396C44.9734 73.9351 45.0505 73.8335 45.1312 73.7343C45.2112 73.6321 45.289 73.5335 45.3726 73.4337C45.3833 73.4242 45.3924 73.4131 45.3995 73.4006C45.6336 73.1232 45.8815 72.8577 46.1424 72.6053C46.219 72.5314 46.2986 72.4569 46.3782 72.3824C47.5935 71.2566 49.0455 70.4181 50.6274 69.9285C50.8058 69.8736 50.9913 69.8233 51.1797 69.7725C51.3658 69.7252 51.5555 69.6802 51.7463 69.6411L51.8109 69.6279C51.902 69.6092 51.9965 69.5929 52.0881 69.5772C52.2032 69.5567 52.3189 69.5391 52.4323 69.5251C53.9041 69.3128 55.4034 69.3972 56.8421 69.7732C56.845 69.7726 56.8456 69.7755 56.8486 69.7749C58.0496 70.0892 59.191 70.5981 60.2277 71.2816C62.0209 72.467 62.7189 74.4005 63.2146 76.5714C63.3884 77.3168 63.5347 78.0923 63.6945 78.8742Z" fill="#184274"/>
<path d="M81.4055 183.909L84.5031 185.594L92.7032 174.243L88.1312 171.756L81.4055 183.909Z" fill="#FFB6B6"/>
<path d="M82.8965 179.864L88.5199 181.627L87.6249 183.986L91.4809 189.589C91.6714 189.866 91.7686 190.196 91.7582 190.532C91.7478 190.868 91.6305 191.192 91.4233 191.457C91.2161 191.721 90.9299 191.912 90.6065 192.002C90.2831 192.092 89.9394 192.076 89.6256 191.957L83.0792 189.467L82.8361 186.705L81.5102 188.87L79.042 187.931L82.8965 179.864Z" fill="#184274"/>
<path d="M98.9513 133.138C98.4569 133.259 97.9421 133.269 97.4431 133.169C96.9442 133.069 96.4733 132.86 96.0636 132.558C95.6539 132.256 95.3153 131.868 95.0717 131.42C94.8282 130.973 94.6855 130.478 94.6538 129.969L68.2327 120.453L73.0815 116.228L98.159 126.225C99.0157 126.228 99.8414 126.546 100.48 127.118C101.118 127.69 101.524 128.477 101.622 129.329C101.72 130.181 101.502 131.04 101.01 131.742C100.517 132.444 99.785 132.941 98.9513 133.138Z" fill="#FFB6B6"/>
<path d="M60.8517 96.8774C60.8517 96.8774 56.4018 96.9756 56.0061 102.062C55.6105 107.148 65.3202 119.729 66.8246 121.804C68.3289 123.879 85.0388 126.432 85.0388 126.432L90.7191 122.303C84.7505 118.431 79.3033 115.462 75.6476 115.596L60.8517 96.8774Z" fill="#FFC000"/>
<path d="M55.3943 119.32L56.4786 123.985C56.4786 123.985 56.4893 128.286 57.2501 129.079C58.0056 129.868 74.6188 128.283 74.6188 128.283C74.6188 128.283 72.8574 121.352 72.8808 116.108L55.3943 119.32Z" fill="#FFB6B6"/>
<path d="M90.4901 178.985L84.4963 175.685C84.3823 167.876 89.0735 157.309 94.6377 146.24C82.1937 148.383 70.4538 149.069 60.2994 146.477C58.6324 146.037 57.2055 144.957 56.3271 143.471C55.4488 141.986 55.1896 140.214 55.6054 138.539C55.6449 138.374 55.6906 138.212 55.7425 138.051C56.9578 134.338 54.2328 132.011 56.7392 127.928C63.3313 125.674 69.5935 125.038 75.32 127.028L78.908 134.971L96.6924 132.667C97.5516 132.564 98.4227 132.632 99.2554 132.868C100.088 133.104 100.866 133.502 101.544 134.04C102.222 134.579 102.787 135.246 103.207 136.004C103.626 136.761 103.892 137.595 103.988 138.456C104.012 138.649 104.027 138.843 104.035 139.038C100.439 155.916 96.4066 171.103 90.4901 178.985Z" fill="#184274"/>
<path d="M56.2178 87.087C60.24 86.263 62.8335 82.3305 62.0105 78.3034C61.1875 74.2764 57.2596 71.6798 53.2373 72.5039C49.215 73.3279 46.6215 77.2604 47.4446 81.2874C48.2676 85.3144 52.1955 87.911 56.2178 87.087Z" fill="#FFB6B6"/>
<path d="M52.9799 89.7887L59.8312 89.3837C60.1201 89.3666 60.4071 89.4402 60.6523 89.5942C60.8975 89.7482 61.0886 89.9749 61.1989 90.2428L63.1351 94.942L71.1818 101.601C71.1818 101.601 74.3677 105.66 74.3751 110.902C74.3826 116.144 75.5055 128.277 75.5055 128.277C75.5055 128.277 70.8558 121.725 67.9859 123.468C67.4976 123.764 67.3259 124.37 66.8145 124.677C66.5594 124.83 65.97 124.681 65.7123 124.834C61.7577 127.185 57.6334 129.481 57.248 129.078C56.4914 128.288 55.5735 124.248 55.5735 124.248L49.3021 101.179C48.9621 99.9647 48.8946 98.6906 49.1044 97.4476C49.3142 96.2046 49.7962 95.0235 50.5157 93.9889C50.9538 93.3713 51.4129 92.9119 51.8395 92.8359C52.7973 92.6317 52.2878 90.4824 52.9799 89.7887Z" fill="#FFC000"/>
<path d="M111.261 193.681L114.153 191.668L107.601 179.293L103.333 182.264L111.261 193.681Z" fill="#FFB6B6"/>
<path d="M111.698 185.378L107.165 189.434C99.9584 181.394 94.5102 170.118 89.8931 157.313C77.7958 153.766 68.6729 148.045 60.7087 141.253C58.0068 138.964 55.9815 136.024 58.2858 133.235C58.3935 133.105 58.506 132.979 58.6232 132.857C61.3439 130.058 68.2435 130.591 72.2845 128.027L81.3116 137.687L80.7438 140.277L97.6994 146.027C98.5153 146.313 99.2664 146.759 99.9096 147.337C100.553 147.915 101.075 148.615 101.447 149.397C101.818 150.178 102.032 151.026 102.074 151.89C102.117 152.755 101.989 153.619 101.696 154.434C101.632 154.618 101.561 154.799 101.482 154.977L111.698 185.378Z" fill="#184274"/>
<path d="M109.574 192.865L114.204 189.215L115.642 191.287L122.439 191.266C122.774 191.265 123.102 191.372 123.373 191.57C123.644 191.768 123.844 192.048 123.945 192.369C124.046 192.689 124.042 193.034 123.934 193.352C123.825 193.67 123.618 193.945 123.342 194.136L117.592 198.138L115.178 196.779L116.214 199.097L114.046 200.606L109.574 192.865Z" fill="#184274"/>
<path d="M63.097 147.928C62.6286 147.729 62.2096 147.43 61.8693 147.051C61.529 146.672 61.2756 146.223 61.1273 145.736C60.979 145.249 60.9393 144.735 61.0108 144.23C61.0824 143.726 61.2635 143.243 61.5415 142.817L46.0312 119.382L52.4405 118.895L66.5868 141.91C67.2718 142.425 67.7444 143.174 67.9148 144.015C68.0853 144.855 67.9419 145.729 67.5118 146.471C67.0816 147.213 66.3946 147.771 65.581 148.039C64.7673 148.308 63.8835 148.268 63.097 147.928Z" fill="#FFB6B6"/>
<path d="M54.1792 96.0616C54.1792 96.0616 50.552 93.4789 47.1998 97.3213C43.8476 101.164 44.1275 117.06 44.096 119.624C44.0861 120.427 45.2439 122.159 46.8391 124.159C47.5552 125.058 48.3595 126.01 49.1859 126.957C49.6641 127.505 49.252 128.645 49.7322 129.177C50.2097 129.707 51.5795 129.629 52.0338 130.12C54.1898 132.453 55.9413 134.229 55.9413 134.229L62.9602 134.316C63.0393 129.092 59.4662 124.429 54.8758 119.922L54.1792 96.0616Z" fill="#FFC000"/>
<path d="M64.0186 76.1801C63.7435 76.316 63.4767 76.4473 63.2145 76.5714C62.1626 77.0891 61.0755 77.5319 59.9613 77.8964C59.7759 77.3915 59.493 76.928 59.1289 76.5325C59.2221 77.0787 59.1746 77.6398 58.9909 78.1625C57.3044 78.5807 55.5341 78.5123 53.8849 77.9651C54.9634 79.9646 55.7603 84.1778 55.7023 87.9353C55.6771 89.922 55.4085 91.7809 54.8219 93.1169L54.0683 90.8212C53.9984 90.0012 53.8579 89.1887 53.6484 88.3928C53.1431 86.1596 52.6712 87.6528 51.9767 88.7598L47.119 89.8223C47.1105 89.7659 47.1044 89.7059 47.0959 89.6494C47.0844 89.5783 47.0729 89.5071 47.0585 89.4366C46.9681 88.9805 46.8031 88.5424 46.5702 88.1401C46.5456 88.679 46.3867 89.2032 46.108 89.665C46.1003 89.677 46.0937 89.6897 46.0882 89.7028C46.0019 89.8426 45.9067 89.9766 45.8031 90.1042C45.7983 90.1075 45.794 90.1115 45.7902 90.116C42.654 90.5362 40.4554 74.3438 44.8973 74.0425C45.0264 74.0337 45.0509 73.8365 45.131 73.7343C45.2111 73.6322 45.2888 73.5335 45.3724 73.4337C45.3831 73.4242 45.3922 73.4131 45.3993 73.4007C45.6367 73.1254 45.8824 72.8607 46.1422 72.6053C46.2189 72.5314 46.2985 72.4569 46.3781 72.3824C47.5971 71.2621 49.0483 70.4252 50.6278 69.9315C50.8062 69.8765 50.9911 69.8234 51.1796 69.7725C51.3657 69.7252 51.5553 69.6802 51.7462 69.6411L51.8108 69.6279C51.9018 69.6092 51.9963 69.5929 52.088 69.5772C52.203 69.5567 52.3188 69.5391 52.4321 69.5251C52.8578 69.7399 53.2221 70.0594 53.4907 70.4536L56.5941 69.8179C56.6763 69.801 56.7591 69.7871 56.8425 69.7762L56.8484 69.775C60.7229 69.1252 63.2141 72.244 64.0186 76.1801Z" fill="#184274"/>
<path d="M47.1044 73.3173C46.4399 73.7975 45.7408 74.2922 44.93 74.4112C44.1191 74.5302 43.1699 74.1377 42.9455 73.3486C42.6711 72.3837 43.5413 71.5052 44.3235 70.8781L46.8037 68.8897C47.2579 68.4864 47.7706 68.1545 48.3244 67.9054C48.6025 67.7828 48.9046 67.7245 49.2083 67.7347C49.512 67.7448 49.8095 67.8232 50.0788 67.9641C50.3454 68.1443 50.5615 68.3899 50.7064 68.6773C50.8514 68.9648 50.9204 69.2847 50.9069 69.6064C50.8715 70.2513 50.659 70.8738 50.2927 71.4054C49.8323 72.1239 49.2314 72.7417 48.5263 73.2216C47.8211 73.7015 47.0263 74.0336 46.1896 74.1979" fill="#184274"/>
<path d="M65.9156 124.977H47.9341C47.2983 124.977 46.6884 125.23 46.2388 125.68C45.7892 126.13 45.5366 126.741 45.5366 127.377C45.5366 128.014 45.7892 128.624 46.2388 129.075C46.6884 129.525 47.2983 129.778 47.9341 129.778H54.5273V148.38H59.3224V129.778H65.9156C66.5514 129.778 67.1613 129.525 67.6109 129.075C68.0605 128.624 68.3131 128.014 68.3131 127.377C68.3131 126.741 68.0605 126.13 67.6109 125.68C67.1613 125.23 66.5514 124.977 65.9156 124.977Z" fill="#4F5E64"/>
<path d="M132.346 201.108L0.856782 201.2C0.762322 201.2 0.671826 201.162 0.605129 201.095C0.538433 201.028 0.500977 200.937 0.500977 200.843C0.500977 200.748 0.538433 200.657 0.605129 200.59C0.671826 200.523 0.762322 200.486 0.856782 200.485L132.346 200.393C132.441 200.393 132.531 200.431 132.598 200.498C132.664 200.565 132.702 200.656 132.702 200.75C132.702 200.845 132.664 200.936 132.598 201.003C132.531 201.07 132.441 201.107 132.346 201.108Z" fill="#CACACA"/>
<path d="M170.611 161.257L173.538 164.451L187.235 154.667L182.915 149.953L170.611 161.257Z" fill="#A0616A"/>
<path d="M176.669 165.777V165.774L176.373 162.585L176.238 162.522L175.449 162.146L171.73 160.385L171.652 160.301L170.906 159.485L166.773 163.284L172.372 169.393L176.211 173.581L176.34 173.461C176.866 172.979 177.292 172.397 177.593 171.749C177.894 171.102 178.065 170.401 178.096 169.688C178.126 168.974 178.016 168.261 177.771 167.59C177.527 166.919 177.152 166.303 176.669 165.777Z" fill="#184274"/>
<path d="M155.446 193.117L159.588 194.377L166.413 178.979L160.299 177.12L155.446 193.117Z" fill="#A0616A"/>
<path d="M166.171 196.565C165.837 195.933 165.381 195.375 164.83 194.921C164.278 194.468 163.642 194.129 162.958 193.924L161.079 191.329L160.932 191.341L155.967 191.797L155.856 191.764L154.801 191.443L153.17 196.817L166.528 200.879L166.579 200.708C166.787 200.025 166.858 199.307 166.788 198.596C166.718 197.885 166.509 197.194 166.171 196.565Z" fill="#184274"/>
<path d="M189.604 112.497C189.604 112.497 216.052 138.063 199.332 145.977H194.164C194.164 145.977 192.611 140.453 189.056 135.795C188.568 135.155 186.739 135.285 186.231 134.662C183.129 130.855 179.767 127.586 177.444 127.715L178 145.38L178.899 151.681C179.371 154.938 166.047 183.379 166.047 183.379L157.673 180.083C157.673 180.083 166.398 156.659 166.5 153.281L159.508 116.149L189.604 112.497Z" fill="#184274"/>
<path d="M191.81 113.758C191.675 113.951 191.499 114.111 191.294 114.226C190.957 114.417 190.592 114.553 190.212 114.628C184.257 115.981 164.804 118.787 159.755 117.449C159.134 117.287 158.73 117.059 158.598 116.759C158.175 115.81 158.229 111.805 158.478 106.968C158.523 106.062 159.521 105.081 159.581 104.133C159.623 103.422 158.727 102.752 158.775 102.029C159.104 97.1386 159.53 92.1549 159.815 89.0044C159.994 86.9791 160.117 85.7129 160.117 85.7129L157.045 66.3209L157.189 66.0839L157.351 66.0029L167.256 61.0942L167.795 59.714C167.952 59.3166 168.223 58.9752 168.575 58.734C168.927 58.4928 169.344 58.3628 169.77 58.3608L176.295 58.3338C176.633 58.3319 176.967 58.411 177.269 58.5644C177.571 58.7178 177.832 58.9412 178.03 59.2159L179.798 61.6672L191.486 69.1684L191.441 69.3064L185.957 86.0159L185.93 87.3181V87.3211L185.726 97.7927L186.292 99.2119L185.654 101.54C185.654 101.54 185.948 104.262 187.521 106.284C188.947 108.12 190.764 110.035 191.585 111.589V111.592C192.04 112.45 192.193 113.194 191.81 113.758Z" fill="#FFC000"/>
<path d="M200.602 144.458L199.188 146.247C199.188 146.247 186.187 155.353 185.74 156.205L183.686 158.151L178.714 152.83L181.299 149.586C183.368 146.989 186.042 144.94 189.085 143.618L193.048 140.098L200.602 144.458Z" fill="#184274"/>
<path d="M192.341 118.898L189.973 95.9536L189.348 86.5103L195.975 85.3106C195.975 85.3106 195.713 92.0628 196.581 95.8725C197.437 99.6318 196.694 118.394 196.641 118.896C197.128 119.332 197.471 119.905 197.625 120.54C197.779 121.176 197.737 121.843 197.504 122.453C197.272 123.064 196.859 123.59 196.322 123.96C195.784 124.331 195.147 124.53 194.494 124.53C193.841 124.531 193.203 124.333 192.665 123.962C192.127 123.592 191.714 123.067 191.481 122.456C191.248 121.846 191.205 121.179 191.358 120.543C191.512 119.908 191.854 119.334 192.341 118.898Z" fill="#A0616A"/>
<path d="M198.805 100.708L190.287 102.473L189.542 99.5007L188.674 98.5785L186.939 89.4801L184.45 84.1504L185.097 65.9245L191.419 69.2812L191.427 69.2872C192.393 70.338 193.06 71.8419 194.168 73.351C197.659 78.1064 198.046 89.6615 197.941 95.9907C197.939 96.0946 198.043 96.2043 198.169 96.3197C198.763 96.866 199.151 97.601 199.267 98.4006C199.383 99.2001 199.22 100.015 198.805 100.708Z" fill="#FFC000"/>
<path d="M153.769 119.798L156.137 96.8537L156.762 87.4104L150.135 86.2107C150.135 86.2107 150.397 92.9629 149.529 96.7726C148.672 100.532 149.415 119.294 149.468 119.796C148.982 120.232 148.639 120.805 148.485 121.44C148.33 122.076 148.373 122.743 148.605 123.353C148.838 123.964 149.251 124.49 149.788 124.861C150.326 125.231 150.963 125.43 151.616 125.43C152.269 125.431 152.907 125.233 153.445 124.862C153.982 124.492 154.395 123.967 154.629 123.356C154.862 122.746 154.905 122.079 154.751 121.443C154.598 120.808 154.255 120.234 153.769 119.798Z" fill="#A0616A"/>
<path d="M161.661 85.0498L159.815 89.0044L159.17 90.3816L157.435 99.479L156.569 100.4L155.823 103.374L155.472 103.302L149.149 101.99L147.305 101.609C146.89 100.916 146.726 100.101 146.842 99.3012C146.958 98.5013 147.346 97.766 147.941 97.2196C148.067 97.1056 148.172 96.9946 148.169 96.8896C148.064 90.5616 148.45 79.0069 151.942 74.2511C153.05 72.7419 153.716 71.2387 154.684 70.1885C154.687 70.1855 154.687 70.1825 154.69 70.1825L157.045 66.3209L157.189 66.0839L157.351 66.0029L161.661 85.0498Z" fill="#FFC000"/>
<path d="M172.844 56.4742C177.638 56.4742 181.525 52.5831 181.525 47.7832C181.525 42.9832 177.638 39.0921 172.844 39.0921C168.05 39.0921 164.163 42.9832 164.163 47.7832C164.163 52.5831 168.05 56.4742 172.844 56.4742Z" fill="#A0616A"/>
<path d="M182.603 43.9706C182.573 42.4883 182.405 40.5921 181.368 39.0798C180.493 37.8076 178.728 36.7995 177.083 37.3036C177.101 36.9742 177.028 36.6461 176.871 36.3558C176.715 36.0656 176.481 35.8245 176.196 35.6593C175.572 35.2782 174.823 35.2092 174.161 35.1462C172.491 34.9902 170.762 34.8282 169.072 35.1492C167.175 35.5093 165.623 36.4874 164.816 37.8346L164.798 37.8766L164.634 38.6748C164.612 38.7818 164.567 38.8828 164.502 38.9709C164.437 39.0589 164.354 39.1319 164.259 39.1848C164.163 39.2385 164.057 39.2704 163.948 39.2782C163.839 39.286 163.729 39.2695 163.627 39.2299C163.515 39.1879 163.394 39.1758 163.276 39.1949C163.158 39.214 163.047 39.2636 162.954 39.3387C162.861 39.4139 162.79 39.512 162.746 39.6234C162.703 39.7348 162.689 39.8557 162.707 39.974L162.752 40.292L162.275 40.202C162.155 40.1788 162.032 40.188 161.917 40.2287C161.802 40.2693 161.7 40.3399 161.622 40.4332C161.543 40.5265 161.491 40.639 161.47 40.7593C161.45 40.8795 161.462 41.0031 161.505 41.1171L161.637 41.4802C161.538 41.4815 161.441 41.5026 161.351 41.5423C161.261 41.582 161.18 41.6395 161.112 41.7112C161.016 41.8158 160.955 41.9483 160.939 42.0896C160.923 42.2309 160.952 42.3737 161.022 42.4974C161.556 43.4101 162.313 44.172 163.222 44.7117C163.631 44.9582 164.071 45.147 164.532 45.2728C164.628 45.2998 164.726 45.3238 164.828 45.3448C168.508 46.1387 172.301 46.2526 176.022 45.6808C175.803 46.4157 175.718 47.1842 175.773 47.9492C175.893 48.9063 176.453 49.6954 177.203 49.9595C177.372 50.017 177.547 50.0592 177.724 50.0855C177.894 50.1131 178.061 50.1542 178.225 50.2085C178.466 50.2969 178.679 50.4475 178.843 50.645C179.008 50.8425 179.117 51.0799 179.16 51.3332C179.203 51.5866 179.179 51.8468 179.089 52.0877C179 52.3285 178.848 52.5415 178.65 52.7049C178.65 52.7049 179.435 53.356 179.534 53.323C179.92 53.1523 180.243 52.8648 180.457 52.5009C181.953 50.3465 182.675 47.4781 182.603 43.9706Z" fill="#184274"/>
</g>
</g>
<defs>
<clipPath id="clip0_288_2066">
<rect width="232" height="201" fill="white" transform="translate(0.5 0.5)"/>
</clipPath>
</defs>
</svg>
