<svg width="17" height="17" viewBox="0 0 17 17" fill="none" xmlns="http://www.w3.org/2000/svg">
<path d="M8.5 14C8.43023 13.9998 8.36126 13.9851 8.29754 13.9567C8.23382 13.9282 8.17675 13.8868 8.13 13.835C7.655 13.305 3.5 8.6 3.5 6C3.5 4.67392 4.02678 3.40215 4.96447 2.46447C5.90215 1.52678 7.17392 1 8.5 1C9.82608 1 11.0979 1.52678 12.0355 2.46447C12.9732 3.40215 13.5 4.67392 13.5 6C13.5 8.6 9.345 13.305 8.87 13.835C8.82325 13.8868 8.76618 13.9282 8.70246 13.9567C8.63874 13.9851 8.56977 13.9998 8.5 14ZM8.5 2C7.43913 2 6.42172 2.42143 5.67157 3.17157C4.92143 3.92172 4.5 4.93913 4.5 6C4.5 7.71 7.115 11.12 8.5 12.74C9.885 11.12 12.5 7.71 12.5 6C12.5 4.93913 12.0786 3.92172 11.3284 3.17157C10.5783 2.42143 9.56087 2 8.5 2Z" fill="#66789C"/>
<path d="M15.5001 16H1.5001C1.41819 16.0001 1.33752 15.9801 1.26515 15.9418C1.19279 15.9034 1.13096 15.8479 1.0851 15.78C1.03949 15.7124 1.01109 15.6348 1.00238 15.5537C0.993663 15.4727 1.00489 15.3907 1.0351 15.315L3.0351 10.315C3.07215 10.222 3.13628 10.1422 3.21919 10.086C3.3021 10.0299 3.39996 9.99991 3.5001 10H6.1201C6.20027 9.99958 6.27936 10.0184 6.35072 10.055C6.42208 10.0915 6.4836 10.1447 6.5301 10.21C7.2801 11.27 8.0301 12.21 8.5001 12.71C8.9451 12.21 9.7201 11.245 10.4701 10.21C10.5166 10.1447 10.5781 10.0915 10.6495 10.055C10.7208 10.0184 10.7999 9.99958 10.8801 10H13.5001C13.6002 9.99991 13.6981 10.0299 13.781 10.086C13.8639 10.1422 13.928 10.222 13.9651 10.315L15.9651 15.315C15.9953 15.3907 16.0065 15.4727 15.9978 15.5537C15.9891 15.6348 15.9607 15.7124 15.9151 15.78C15.8692 15.8479 15.8074 15.9034 15.735 15.9418C15.6627 15.9801 15.582 16.0001 15.5001 16ZM2.2401 15H14.7401L13.1401 11H11.1351C10.0151 12.555 8.9201 13.78 8.8701 13.835C8.82323 13.8866 8.76611 13.9278 8.70239 13.956C8.63868 13.9841 8.56977 13.9987 8.5001 13.9987C8.43042 13.9987 8.36152 13.9841 8.2978 13.956C8.23408 13.9278 8.17696 13.8866 8.1301 13.835C8.0801 13.78 6.9851 12.555 5.8651 11H3.8401L2.2401 15Z" fill="#66789C"/>
<path d="M8.5 8.5C8.00555 8.5 7.5222 8.35338 7.11108 8.07867C6.69995 7.80397 6.37952 7.41352 6.1903 6.95671C6.00108 6.49989 5.95157 5.99723 6.04804 5.51228C6.1445 5.02732 6.3826 4.58187 6.73223 4.23223C7.08187 3.8826 7.52732 3.6445 8.01228 3.54804C8.49723 3.45157 8.9999 3.50108 9.45671 3.6903C9.91353 3.87952 10.304 4.19995 10.5787 4.61108C10.8534 5.0222 11 5.50555 11 6C11 6.66304 10.7366 7.29893 10.2678 7.76777C9.79893 8.23661 9.16304 8.5 8.5 8.5ZM8.5 4.5C8.20333 4.5 7.91332 4.58797 7.66665 4.7528C7.41997 4.91762 7.22771 5.15189 7.11418 5.42598C7.00065 5.70007 6.97095 6.00167 7.02882 6.29264C7.0867 6.58361 7.22956 6.85088 7.43934 7.06066C7.64912 7.27044 7.91639 7.4133 8.20737 7.47118C8.49834 7.52906 8.79994 7.49935 9.07403 7.38582C9.34812 7.27229 9.58238 7.08003 9.74721 6.83336C9.91203 6.58668 10 6.29667 10 6C10 5.60218 9.84197 5.22065 9.56066 4.93934C9.27936 4.65804 8.89783 4.5 8.5 4.5Z" fill="#66789C"/>
</svg>
