<svg width="214" height="171" viewBox="0 0 214 171" fill="none" xmlns="http://www.w3.org/2000/svg">
<g clip-path="url(#clip0_288_2017)">
<mask id="mask0_288_2017" style="mask-type:luminance" maskUnits="userSpaceOnUse" x="0" y="0" width="214" height="171">
<path d="M213.5 0.5H0.5V170.5H213.5V0.5Z" fill="white"/>
</mask>
<g mask="url(#mask0_288_2017)">
<path d="M142.82 37.737C142.789 37.7423 142.742 37.7502 142.685 37.7596C141.577 37.9434 134.875 38.9788 128.119 36.4013C125.257 35.3094 126.233 35.0373 119.859 31.2411C112.385 26.7904 110.467 26.8215 109.911 24.7463C108.8 20.6023 114.734 14.088 118.661 14.5169C119.695 14.6298 120.803 15.2472 122.525 14.8286C122.903 14.7366 124.56 14.334 125.368 12.9607C126.088 11.7357 125.478 10.852 125.768 9.84723C126.528 7.20998 132.868 5.89385 138.426 6.82377C141.622 7.35862 144.109 8.81881 148.951 11.7174C157.379 16.7624 161.593 19.2849 162.54 23.1496C163.438 26.8127 161.283 28.3911 162.85 32.3123C164.309 35.9634 166.627 35.7196 167.424 38.6732C168.708 43.4261 163.945 48.6424 161.961 50.8154C159.785 53.1978 157.705 54.5054 154.943 56.2412C151.476 58.42 149.743 59.5094 147.659 59.3986C143.881 59.1977 132.653 59.8817 132.507 56.7504C132.452 55.5769 118.835 56.5377 125.54 43.9035C126.362 42.3539 142.473 44.0091 142.686 43.1189" fill="#05264E"/>
<path d="M149.34 45.8217L160.921 63.1215L127.679 69.8541L129.796 48.1954L149.34 45.8217Z" fill="#FFB6B6"/>
<path opacity="0.1" d="M149.34 45.8217L160.921 63.1215L127.679 69.8541L129.796 48.1954L149.34 45.8217Z" fill="black"/>
<path d="M125.189 58.6331L161.043 57.137L176.978 65.8645L176.231 121.97L192.913 153.638L108.756 137.679L115.229 113.741L112.242 63.3709L125.189 58.6331Z" fill="#FFC000"/>
<path d="M1.46559 167.627C0.320923 165.82 0.185741 163.588 1.10405 161.655L14.7502 132.94C15.7687 130.797 17.958 129.413 20.3279 129.413H192.689C194.993 129.413 197.089 130.682 198.159 132.725L212.786 160.649C213.797 162.579 213.731 164.846 212.608 166.713C211.486 168.581 209.517 169.7 207.34 169.709L6.70601 170.5H6.68089C4.55397 170.5 2.60561 169.427 1.46559 167.627Z" fill="white"/>
<path d="M1.46559 167.627C0.320923 165.82 0.185741 163.588 1.10405 161.655L14.7502 132.94C15.7687 130.797 17.958 129.413 20.3279 129.413H192.689C194.993 129.413 197.089 130.682 198.159 132.725L212.786 160.649C213.797 162.579 213.731 164.846 212.608 166.713C211.486 168.581 209.517 169.7 207.34 169.709L6.70601 170.5H6.68089C4.55397 170.5 2.60561 169.427 1.46559 167.627ZM20.3279 130.062C18.2068 130.062 16.2472 131.301 15.3357 133.219L1.68952 161.934C0.867559 163.664 0.988494 165.662 2.01307 167.28C3.03352 168.891 4.77716 169.851 6.68099 169.851H6.70347L207.338 169.06C209.286 169.052 211.048 168.05 212.053 166.378C213.057 164.707 213.117 162.678 212.212 160.951L197.585 133.027C196.628 131.198 194.752 130.062 192.689 130.062H20.3279Z" fill="#3F3D56"/>
<path d="M176.642 159.523L105.513 154.625C104.463 154.553 103.626 153.844 103.38 152.819C103.134 151.794 103.558 150.781 104.461 150.239L120.189 140.787C120.589 140.547 121.047 140.431 121.511 140.453L183.037 143.254C183.85 143.291 184.577 143.735 184.981 144.444C185.384 145.152 185.397 146.005 185.015 146.725L178.889 158.273C178.478 159.048 177.672 159.528 176.804 159.528C176.751 159.528 176.696 159.526 176.642 159.523Z" fill="#3F3D56"/>
<path d="M104.896 151.768L175.733 156.63L181.335 144.536L120.596 142.151L104.896 151.768Z" fill="white"/>
<path d="M139.755 51.6492C151.511 51.6492 161.041 42.1048 161.041 30.3312C161.041 18.5576 151.511 9.01326 139.755 9.01326C127.998 9.01326 118.468 18.5576 118.468 30.3312C118.468 42.1048 127.998 51.6492 139.755 51.6492Z" fill="#FFB6B6"/>
<path d="M146.611 31.7107C146.58 31.7161 146.533 31.724 146.476 31.7334C145.368 31.9171 138.666 32.9526 131.91 30.3751C129.048 29.2832 130.024 29.011 123.65 25.2148C116.176 20.7642 114.258 20.7953 113.702 18.7201C112.591 14.5761 118.525 8.06176 122.452 8.49067C123.486 8.60359 124.594 9.22099 126.316 8.80236C126.694 8.71038 128.351 8.30776 129.159 6.93449C129.879 5.70943 129.269 4.82572 129.559 3.821C130.319 1.18375 136.659 -0.132381 142.217 0.797535C145.413 1.33239 147.9 2.79258 152.742 5.69112C161.17 10.7361 165.384 13.2586 166.331 17.1234C167.229 20.7865 165.074 22.3648 166.641 26.2861C168.1 29.9372 170.418 29.6933 171.215 32.6469C172.499 37.3998 167.736 42.6162 165.752 44.7892C163.576 47.1716 161.496 48.4792 158.734 50.215C155.267 52.3938 153.534 53.4832 151.45 53.3724C147.672 53.1714 143.913 49.7423 143.767 46.6109C143.712 45.4374 144.201 45.0855 145.411 41.0512C145.915 39.3704 146.264 37.9829 146.477 37.0927" fill="#05264E"/>
<path d="M161.2 145.927C162.57 145.981 163.612 147.21 163.688 148.542C163.766 149.923 162.807 151.196 161.654 151.854C160.304 152.625 158.618 152.749 157.098 152.616C155.731 152.497 154.243 152.071 153.363 150.94C152.622 149.988 152.35 148.551 152.98 147.471C153.604 146.4 154.932 146.104 156.043 146.534C157.218 146.988 157.957 148.059 157.965 149.324C157.973 150.727 157.164 152.023 156.029 152.798C154.805 153.634 153.264 153.903 151.807 153.9C150.22 153.896 148.639 153.563 147.179 152.943C145.81 152.362 144.443 151.525 143.465 150.388C142.548 149.321 141.999 147.842 142.508 146.458C142.925 145.324 143.98 144.628 145.189 144.724C146.295 144.812 147.414 145.455 147.905 146.479C148.459 147.634 148.21 149.019 147.505 150.052C146.691 151.244 145.404 151.914 143.975 152.011C142.455 152.114 140.949 151.573 139.698 150.736C138.539 149.962 137.521 148.97 136.278 148.326C135.679 148.015 135.028 147.818 134.35 147.819C133.488 147.82 132.658 148.104 131.819 148.269C131.108 148.408 130.375 148.489 129.673 148.262C129.072 148.067 128.51 147.71 128.132 147.198C127.774 146.714 127.649 146.107 127.851 145.532C128.01 145.081 128.732 145.275 128.572 145.731C128.201 146.782 129.473 147.555 130.363 147.651C131.038 147.725 131.735 147.529 132.386 147.377C133.065 147.218 133.759 147.055 134.461 147.072C136.949 147.133 138.593 149.263 140.598 150.418C142.706 151.632 145.794 151.717 147.085 149.304C147.554 148.427 147.651 147.262 147.006 146.443C146.47 145.761 145.516 145.352 144.652 145.485C143.567 145.651 143.027 146.686 143.066 147.715C143.114 148.974 143.991 149.997 144.926 150.752C147.006 152.431 149.766 153.286 152.427 153.136C153.676 153.065 155.003 152.74 155.973 151.907C156.811 151.188 157.383 150.018 157.181 148.897C157.007 147.927 156.195 147.192 155.214 147.094C154.21 146.994 153.425 147.708 153.38 148.712C153.33 149.842 154 150.785 154.971 151.299C156.071 151.882 157.404 151.954 158.623 151.891C159.917 151.823 161.266 151.481 162.172 150.495C162.944 149.653 163.237 148.404 162.525 147.429C162.211 146.999 161.739 146.697 161.2 146.675C160.721 146.656 160.719 145.908 161.2 145.927Z" fill="#FFC000"/>
<path d="M127.157 145.126L127.538 142.767L148.67 102.317C149.02 101.647 149.85 101.387 150.519 101.738C151.188 102.088 151.447 102.919 151.097 103.589L129.974 144.021L128.247 145.697C128.043 145.894 127.748 145.937 127.497 145.805C127.245 145.673 127.112 145.406 127.157 145.126Z" fill="#3F3D56"/>
<path d="M141.562 119.39C143.946 119.84 146.188 120.855 148.1 122.35L148.208 122.373L148.23 122.266L171.261 125.879L169.593 95.1989L187.048 85.6244L182.922 137.484C182.028 140.796 178.596 142.73 175.306 141.776L145.988 133.33L146.061 132.969L145.958 132.942C143.615 133.574 141.155 133.636 138.783 133.121C132.833 131.915 128.632 127.863 129.398 124.071C130.165 120.279 135.61 118.183 141.562 119.39Z" fill="#FFB6B6"/>
<path d="M157.308 71.3503L176.978 65.8644C176.978 65.8644 187.311 73.4698 188.556 81.6986C188.704 82.6772 189.115 128.265 188.68 129.45C185.463 138.232 167.766 124.214 167.766 124.214L157.308 71.3503Z" fill="#FFC000"/>
<path d="M71.9894 153.286L69.9503 151.536C69.6468 151.275 69.2775 151.102 68.8827 151.036L23.447 143.452C22.41 143.279 21.644 142.529 21.4477 141.495C21.2516 140.46 21.6898 139.481 22.5914 138.939L38.8008 129.199C39.3425 128.874 39.98 128.771 40.5968 128.911L98.2056 141.945C99.3255 142.199 100.073 143.105 100.11 144.254C100.146 145.404 99.4583 146.356 98.3566 146.681L74.2695 153.776C74.0409 153.843 73.8078 153.876 73.5767 153.876C73.0018 153.876 72.4392 153.672 71.9894 153.286Z" fill="#3F3D56"/>
<path d="M50.1087 96.7222C52.3609 97.6254 54.3643 99.0557 55.9513 100.893L56.0524 100.937L56.0945 100.836L77.992 108.846L101.373 70.9333L114.298 78.9559L87.1889 122.492C85.6721 125.568 81.9311 126.801 78.8872 125.227L51.7561 111.257L51.8978 110.916L51.8026 110.869C49.3815 111.036 46.9558 110.619 44.7284 109.654C39.1241 107.318 35.7853 102.528 37.2707 98.9559C38.7562 95.3842 44.5027 94.3839 50.1087 96.7222Z" fill="#FFB6B6"/>
<path d="M126.454 77.7777L116.112 62.2902C116.112 62.2902 103.806 64.7296 98.7369 71.3245C98.1033 72.1489 76.3373 103.763 76.1971 105.143C75.2155 114.801 100.231 119.326 100.231 119.326L126.454 77.7777Z" fill="#FFC000"/>
<path d="M70.8641 153.751L18.7809 146.542C17.0377 146.301 15.599 145.05 15.1154 143.355L3.15322 101.425C2.74788 100.004 3.05048 98.5328 3.98345 97.3878C4.91642 96.2428 6.29484 95.6511 7.76675 95.7636L60.2407 99.7898C62.139 99.9354 63.7327 101.274 64.2064 103.121L75.7778 148.234C76.1471 149.674 75.7778 151.195 74.7899 152.305C73.9393 153.26 72.733 153.793 71.4755 153.793C71.2728 153.793 71.0684 153.78 70.8641 153.751Z" fill="#3F3D56"/>
<path d="M59.2545 67.8675C59.559 68.2029 60.6637 67.8612 62.8609 67.1642C64.531 66.6343 64.7883 66.4415 64.9471 66.3033C65.5056 65.8173 65.652 65.3063 66.2052 63.0486C67.1981 58.9965 67.2288 58.5941 67.7387 57.7342C67.9143 57.4381 68.3578 56.7318 68.2496 56.6443C68.1385 56.5543 67.6585 57.2901 66.7715 57.5682C65.9069 57.8391 65.5177 57.4051 64.7796 57.5156C63.8255 57.6585 63.2582 58.5662 62.3683 60.0353C61.5803 61.3364 61.4812 61.8598 60.3764 64.4448C60.0634 65.1771 59.8114 65.7439 59.6179 66.1919C57.4487 68.2194 55.2974 70.2737 53.1656 72.3458C53.2067 72.2829 53.2453 72.2235 53.2789 72.1719C54.2232 70.7199 54.3515 69.9415 54.3378 69.3582C54.3156 68.4132 53.8649 67.6935 52.9645 66.2925C52.0822 64.9196 51.2462 64.0137 50.2389 62.9327C48.9186 61.5158 48.2584 60.8072 47.9955 60.8538C46.1177 61.1866 45.6156 73.9918 47.9782 76.2818C47.6466 76.5191 47.372 76.7676 47.1734 77.0121C45.1509 74.7632 41.6863 72.2507 37.8483 71.9414C35.4822 71.7507 34.1763 72.4943 33.7703 72.7497C31.8935 73.9302 30.7776 76.2931 31.338 76.9598C31.8606 77.5815 33.37 76.1681 36.3281 76.2459C38.3922 76.3003 40.0046 77.0502 40.9618 77.4955C42.9698 78.4295 43.7042 79.3477 45.1847 79.9767C44.4907 80.5495 43.9408 81.2643 43.5955 81.931C43.4759 82.0545 43.3568 82.1786 43.2373 82.3022C41.7097 81.4401 39.9894 80.8076 38.1863 80.6623C35.8201 80.4716 34.5142 81.2152 34.1082 81.4706C32.8433 82.2663 31.9267 83.5976 31.6333 84.5861C31.4416 84.6247 31.2642 84.6687 31.1017 84.7162C30.5283 83.4185 28.822 82.0499 27.2354 81.3602C24.5042 80.1729 20.9565 80.4876 20.5769 81.6166C20.5648 81.6526 20.5618 81.6881 20.5564 81.7237C20.8558 79.3045 21.2623 76.9023 21.7702 74.5175C21.7874 74.5855 21.809 74.6544 21.8378 74.7269C22.512 76.4228 24.3338 78.0505 26.8171 78.8949C28.7662 79.5577 29.5825 79.2142 29.7899 79.1182C29.988 79.0265 30.8436 78.6587 31.0533 77.9274C31.442 76.5714 29.0617 72.564 27.5603 73.9082C22.7364 78.2269 22.0744 74.7298 21.8529 74.1412C22.263 72.2559 22.7351 70.3813 23.2645 68.5174C23.2736 68.5288 23.2815 68.54 23.291 68.5515C24.345 69.8315 26.3732 70.7334 28.7567 70.7732C30.6274 70.8045 31.2386 70.2801 31.3915 70.1393C31.5374 70.0048 32.1759 69.4484 32.1545 68.7571C32.1147 67.4754 29.838 66.4316 28.0165 66.2506C26.3379 66.0838 24.5304 66.5985 23.6338 67.2503C24.0506 65.8545 24.4991 64.4647 24.9774 63.081C26.2025 63.5821 27.9378 63.5147 29.6425 62.7516C31.0483 62.1223 31.3217 61.518 31.3867 61.3597C31.4487 61.2085 31.7313 60.5708 31.4749 60.0628C30.9994 59.121 28.9386 59.1369 27.5173 59.6374C26.932 59.8436 26.3756 60.1608 25.8988 60.5193C26.7465 58.2514 27.6705 55.9996 28.6643 53.7644L27.6683 53.515C26.3989 56.3703 25.292 59.2629 24.3408 62.1875C24.2225 61.3298 23.9261 60.416 23.5359 59.6737C22.3883 57.4909 19.9373 55.8532 19.1084 56.3846C18.9425 56.4909 18.8727 56.6639 18.8096 56.87C18.3015 58.5283 18.6842 60.82 20.0224 62.9255C21.0726 64.578 21.8815 64.81 22.0922 64.8624C22.2701 64.9068 22.9569 65.0967 23.5215 64.852C23.1418 66.1549 22.7907 67.4635 22.4706 68.7779C22.0854 67.8201 21.3263 66.7995 20.5235 66.0938C18.6722 64.4665 15.7984 63.8153 15.2141 64.6084C15.0972 64.7671 15.0939 64.9537 15.1085 65.1688C15.2263 66.8993 16.4022 68.9023 18.4038 70.3891C19.9749 71.5561 20.8131 71.4829 21.0286 71.4564C21.1554 71.4409 21.5388 71.4026 21.9084 71.2353C21.5653 72.8323 21.2654 74.4371 21.0062 76.0486C20.4878 74.2458 18.7269 71.9968 17.0649 72.7123C14.1158 73.982 10.6492 72.0317 10.2676 72.8845C10.1683 73.1064 10.2505 73.3352 10.3455 73.5835C11.1096 75.5815 13.2197 77.5173 16.1172 78.5453C18.3912 79.3522 19.3533 78.9622 19.5978 78.8529C19.7599 78.7804 20.2946 78.5567 20.693 78.1415C20.4066 80.2122 20.1871 82.2936 20.0325 84.3839C19.4176 83.0394 17.6857 81.6229 16.0644 80.8926C13.2204 79.6115 9.5007 79.8921 9.08758 81.0693C9.00497 81.3048 9.07014 81.532 9.16758 81.7868C9.95186 83.8375 12.1177 85.8244 15.0916 86.8796C17.4258 87.7077 18.4132 87.3075 18.6642 87.1953C18.8475 87.1133 19.4951 86.8424 19.908 86.3279C19.8551 87.2942 19.8143 88.2622 19.7884 89.232C19.7811 89.5083 19.7768 89.7845 19.7714 90.0607C19.7379 90.1149 19.7087 90.1704 19.6892 90.2285C19.6096 90.4654 19.6638 90.6934 19.7573 90.9424C19.7553 91.1179 19.7542 91.2932 19.753 91.4686C19.2327 90.9963 18.612 90.286 17.8654 89.2739C17.1917 88.3607 16.552 89.0307 16.1411 89.8083C15.4968 89.6646 14.8823 89.7536 14.3991 90.2057C11.1583 93.2376 7.52346 91.629 7.47204 92.533C7.4572 92.7939 7.59671 93.0013 7.77257 93.2263C9.18758 95.0366 11.9655 96.3573 15.2656 96.4965C17.8557 96.6057 18.7208 95.9008 18.9374 95.7112C19.0135 95.6446 19.1841 95.5008 19.3688 95.2986C19.5172 95.4172 19.6615 95.5248 19.8063 95.623C19.8633 97.3585 19.9652 99.0921 20.1163 100.822C19.9935 100.833 19.876 100.854 19.7885 100.863C18.5339 100.991 18.1111 99.2955 16.2159 98.6762C15.5865 98.4705 14.374 98.2461 13.735 98.6762C13.643 98.7381 13.329 98.9711 12.8418 99.1731C12.5539 99.2926 12.3339 99.3479 12.2464 99.3719C11.4688 99.5849 10.7486 100.169 10.2617 100.564C9.34636 101.307 8.88875 101.679 8.67387 102.353C8.60627 102.566 8.41607 103.163 8.67387 103.745C8.79569 104.02 9.07841 104.429 10.1624 104.838C10.8067 105.081 12.6859 105.791 14.9258 105.037C15.4359 104.865 15.0465 104.927 17.0098 103.944C18.5544 103.17 19.4578 102.801 19.59 102.055C19.6365 101.793 19.5896 101.474 19.7885 101.36C19.899 101.296 20.0326 101.327 20.1659 101.375C20.2959 102.766 20.4582 104.155 20.6549 105.541H18.8875C16.5406 105.541 14.4351 106.849 13.393 108.955L6.78183 122.313C6.36446 123.156 6.1438 124.099 6.1438 125.04V159.387C6.1438 162.774 8.89483 165.529 12.2763 165.529H27.7077C31.0892 165.529 33.8402 162.774 33.8402 159.387V127.76C33.8402 126.989 33.6976 126.234 33.4163 125.516L27.1155 109.439C26.3513 107.489 24.6962 106.11 22.7177 105.683C23.3523 104.929 23.9879 104.177 24.6285 103.426C25.435 103.816 26.3223 104.136 27.2762 104.36C29.7999 104.955 30.7816 104.425 31.03 104.279C31.2672 104.14 32.2954 103.575 32.4697 102.633C32.4883 102.532 32.4955 102.43 32.4942 102.327C35.0793 104.431 36.4277 105.469 37.413 105.123C38.26 104.826 38.7435 103.851 39.0204 102.977C39.3096 103.017 39.6163 103.058 39.9431 103.102C43.4836 103.575 45.2677 103.795 45.9501 102.955C46.8947 101.793 45.9982 99.5514 45.7511 98.9338C45.214 97.5912 44.3878 96.7744 43.8746 96.2774C43.2082 95.6321 41.3088 93.7929 38.3184 93.5476C37.6684 93.4942 37.0844 93.5352 36.4895 93.6598C36.2822 93.4699 36.0634 93.2839 35.8225 93.1071C35.3635 92.7704 34.9102 92.521 34.4223 92.3261C35.1707 91.5049 35.9212 90.6863 36.6752 89.871C36.7946 89.9254 36.9079 89.9779 37.0121 90.0264C39.4822 91.1753 40.0249 92.3004 42.4005 92.8927C43.4782 93.1614 44.6983 93.4657 45.0003 93.0083C45.537 92.1958 43.2593 88.8525 39.7395 86.5905C39.9769 86.3388 40.2148 86.088 40.4526 85.837C40.7745 85.9722 41.0581 86.104 41.2997 86.2164C43.7699 87.3653 44.3126 88.4904 46.6882 89.0827C47.7658 89.3514 48.9859 89.6557 49.2881 89.1983C49.7668 88.4733 48.0051 85.7328 45.1198 83.5437C45.9124 83.2916 46.9633 83.0123 48.3241 83.0481C50.3882 83.1024 52.0006 83.8524 52.9578 84.2976C55.428 85.4466 55.9707 86.5717 58.3462 87.164C59.4239 87.4327 60.644 87.7369 60.9461 87.2795C61.7438 86.0716 56.3256 79.2659 49.8443 78.7435C49.3412 78.703 48.889 78.7064 48.4802 78.7367C48.4237 78.6429 48.3624 78.5467 48.2978 78.4488C50.4907 78.5194 54.7733 77.8915 58.4185 80.4545C59.4696 81.1936 61.5115 82.932 64.9286 84.3603C66.0208 84.8169 66.57 85.0413 66.7213 84.8539C67.2627 84.1829 62.7606 78.6604 56.4268 75.9399C53.9155 74.8613 52.3639 74.7592 51.2603 74.9226C51.4304 74.7284 51.5962 74.528 51.7557 74.3267C54.2221 71.9042 56.7195 69.507 59.2394 67.1421C59.1174 67.5198 59.1215 67.7209 59.2545 67.8675ZM27.6041 98.0185C24.8184 97.1153 21.4451 97.6006 20.5656 98.6282C20.4415 97.7174 20.3338 96.8053 20.245 95.8915C21.5141 96.6013 22.8383 96.7915 25.3504 97.1274C26.4203 97.2704 27.3273 97.3895 28.0945 97.464C28.1976 97.7437 28.3075 97.9955 28.435 98.2363C28.4498 98.2642 28.4656 98.2908 28.4807 98.3184L28.4585 98.3438C28.1724 98.2196 27.8858 98.1099 27.6041 98.0185ZM20.2028 85.7827C20.2822 85.5188 20.2839 85.2376 20.2232 84.9478C20.3099 83.8979 20.4181 82.8512 20.5461 81.8077C20.5428 81.9674 20.5934 82.1273 20.6623 82.3006C21.4368 84.2485 23.5293 86.1181 26.3817 87.0881C26.9138 87.269 27.3702 87.3831 27.7634 87.4528C27.5904 87.7546 27.4579 88.0488 27.3701 88.3209C26.3976 87.5385 25.1459 86.9696 23.7257 87.5732C23.3392 87.7375 23.1098 88.3383 22.9105 89.0569C21.5985 89.0795 20.5021 89.3537 19.9799 89.8175C19.9827 89.624 19.9817 89.431 19.9869 89.2372C20.0163 88.1329 20.0707 87.0321 20.1473 85.9347C20.1682 85.8855 20.187 85.8351 20.2028 85.7827ZM19.9836 91.4631C20.0402 91.5791 20.1021 91.6945 20.1664 91.8095C20.1081 91.7664 20.0483 91.7201 19.987 91.67C19.9853 91.6011 19.9849 91.5321 19.9836 91.4631ZM22.2238 105.598C22.071 105.578 21.9169 105.563 21.7612 105.554C21.4021 103.769 21.0705 101.984 20.7929 100.197C21.5228 101.357 22.7142 102.419 24.2318 103.224C23.5584 104.014 22.8906 104.805 22.2238 105.598ZM33.9814 92.168C33.0314 91.8624 31.9166 91.7161 30.3737 91.5367C29.9828 90.9925 29.5797 90.5915 29.2818 90.3031C29.1204 90.1468 28.8727 89.8369 28.5518 89.4743C29.3834 89.207 30.6246 88.7307 32.3784 88.7768C33.9724 88.8188 35.2952 89.2753 36.2566 89.6862C35.4951 90.5102 34.7373 91.3379 33.9814 92.168ZM39.3654 86.3566C38.4319 85.7917 37.4195 85.308 36.3537 84.968C36.4572 84.9671 36.5586 84.964 36.6661 84.9669C37.9878 85.0017 39.1229 85.3217 40.0207 85.6643C39.8022 85.895 39.5834 86.1254 39.3654 86.3566Z" fill="#CCCCCC"/>
</g>
</g>
<defs>
<clipPath id="clip0_288_2017">
<rect width="213" height="170" fill="white" transform="translate(0.5 0.5)"/>
</clipPath>
</defs>
</svg>
