<svg width="17" height="17" viewBox="0 0 17 17" fill="none" xmlns="http://www.w3.org/2000/svg">
<path d="M8.5 1C7.01664 1 5.5666 1.43987 4.33323 2.26398C3.09986 3.08809 2.13856 4.25943 1.57091 5.62987C1.00325 7.00032 0.854725 8.50832 1.14411 9.96318C1.4335 11.418 2.14781 12.7544 3.1967 13.8033C4.2456 14.8522 5.58197 15.5665 7.03683 15.8559C8.49168 16.1453 9.99968 15.9968 11.3701 15.4291C12.7406 14.8614 13.9119 13.9001 14.736 12.6668C15.5601 11.4334 16 9.98336 16 8.5C16 6.51088 15.2098 4.60322 13.8033 3.1967C12.3968 1.79018 10.4891 1 8.5 1ZM8.5 15C7.21442 15 5.95772 14.6188 4.8888 13.9046C3.81988 13.1903 2.98676 12.1752 2.49479 10.9874C2.00282 9.79972 1.8741 8.49279 2.1249 7.23191C2.3757 5.97104 2.99477 4.81285 3.90381 3.90381C4.81285 2.99476 5.97104 2.3757 7.23192 2.1249C8.49279 1.87409 9.79973 2.00281 10.9874 2.49478C12.1752 2.98675 13.1903 3.81987 13.9046 4.88879C14.6188 5.95771 15 7.21442 15 8.5C15 10.2239 14.3152 11.8772 13.0962 13.0962C11.8772 14.3152 10.2239 15 8.5 15Z" fill="#66789C"/>
<path d="M8.5 3C7.41221 3 6.34884 3.32257 5.44437 3.92692C4.5399 4.53126 3.83495 5.39025 3.41867 6.39524C3.00238 7.40023 2.89346 8.5061 3.10568 9.573C3.3179 10.6399 3.84173 11.6199 4.61092 12.3891C5.3801 13.1583 6.36011 13.6821 7.42701 13.8943C8.4939 14.1065 9.59977 13.9976 10.6048 13.5813C11.6098 13.1651 12.4687 12.4601 13.0731 11.5556C13.6774 10.6512 14 9.5878 14 8.5C14 7.04131 13.4205 5.64236 12.3891 4.61091C11.3576 3.57946 9.95869 3 8.5 3ZM8.5 13C7.60999 13 6.73996 12.7361 5.99994 12.2416C5.25991 11.7471 4.68314 11.0443 4.34254 10.2221C4.00195 9.39981 3.91284 8.49501 4.08647 7.62209C4.2601 6.74918 4.68869 5.94736 5.31802 5.31802C5.94736 4.68868 6.74918 4.2601 7.6221 4.08647C8.49501 3.91283 9.39981 4.00195 10.2221 4.34254C11.0443 4.68314 11.7471 5.25991 12.2416 5.99993C12.7361 6.73995 13 7.60998 13 8.5C13 9.69347 12.5259 10.8381 11.682 11.682C10.8381 12.5259 9.69348 13 8.5 13Z" fill="#66789C"/>
<path d="M9.75 6.5C9.88261 6.5 10.0098 6.44732 10.1035 6.35355C10.1973 6.25979 10.25 6.13261 10.25 6C10.25 5.86739 10.1973 5.74021 10.1035 5.64645C10.0098 5.55268 9.88261 5.5 9.75 5.5H9V5C9 4.86739 8.94732 4.74021 8.85355 4.64645C8.75979 4.55268 8.63261 4.5 8.5 4.5C8.36739 4.5 8.24021 4.55268 8.14645 4.64645C8.05268 4.74021 8 4.86739 8 5V5.5H7.75C7.48478 5.5 7.23043 5.60536 7.04289 5.79289C6.85536 5.98043 6.75 6.23478 6.75 6.5V8C6.75 8.26522 6.85536 8.51957 7.04289 8.70711C7.23043 8.89464 7.48478 9 7.75 9H9.25V10.5H7.25C7.11739 10.5 6.99021 10.5527 6.89645 10.6464C6.80268 10.7402 6.75 10.8674 6.75 11C6.75 11.1326 6.80268 11.2598 6.89645 11.3536C6.99021 11.4473 7.11739 11.5 7.25 11.5H8V12C8 12.1326 8.05268 12.2598 8.14645 12.3536C8.24021 12.4473 8.36739 12.5 8.5 12.5C8.63261 12.5 8.75979 12.4473 8.85355 12.3536C8.94732 12.2598 9 12.1326 9 12V11.5H9.25C9.51522 11.5 9.76957 11.3946 9.95711 11.2071C10.1446 11.0196 10.25 10.7652 10.25 10.5V9C10.25 8.73478 10.1446 8.48043 9.95711 8.29289C9.76957 8.10536 9.51522 8 9.25 8H7.75V6.5H9.75Z" fill="#66789C"/>
</svg>
