<svg width="17" height="17" viewBox="0 0 17 17" fill="none" xmlns="http://www.w3.org/2000/svg">
<path d="M8.5 1C7.01664 1 5.5666 1.43987 4.33323 2.26398C3.09986 3.08809 2.13856 4.25943 1.57091 5.62987C1.00325 7.00032 0.854725 8.50832 1.14411 9.96318C1.4335 11.418 2.14781 12.7544 3.1967 13.8033C4.2456 14.8522 5.58197 15.5665 7.03683 15.8559C8.49168 16.1453 9.99968 15.9968 11.3701 15.4291C12.7406 14.8614 13.9119 13.9001 14.736 12.6668C15.5601 11.4334 16 9.98336 16 8.5C16 6.51088 15.2098 4.60322 13.8033 3.1967C12.3968 1.79018 10.4891 1 8.5 1ZM8.5 15C7.21442 15 5.95772 14.6188 4.8888 13.9046C3.81988 13.1903 2.98676 12.1752 2.49479 10.9874C2.00282 9.79972 1.8741 8.49279 2.1249 7.23191C2.3757 5.97104 2.99477 4.81285 3.90381 3.90381C4.81285 2.99476 5.97104 2.3757 7.23192 2.1249C8.49279 1.87409 9.79973 2.00281 10.9874 2.49478C12.1752 2.98675 13.1903 3.81987 13.9046 4.88879C14.6188 5.95771 15 7.21442 15 8.5C15 10.2239 14.3152 11.8772 13.0962 13.0962C11.8772 14.3152 10.2239 15 8.5 15Z" fill="#66789C"/>
<path d="M8.5 3C7.41221 3 6.34884 3.32257 5.44437 3.92692C4.5399 4.53126 3.83495 5.39025 3.41867 6.39524C3.00238 7.40023 2.89346 8.5061 3.10568 9.573C3.3179 10.6399 3.84173 11.6199 4.61092 12.3891C5.3801 13.1583 6.36011 13.6821 7.42701 13.8943C8.4939 14.1065 9.59977 13.9976 10.6048 13.5813C11.6098 13.1651 12.4687 12.4601 13.0731 11.5556C13.6774 10.6512 14 9.5878 14 8.5C14 7.04131 13.4205 5.64236 12.3891 4.61091C11.3576 3.57946 9.95869 3 8.5 3ZM8.5 13C7.60999 13 6.73996 12.7361 5.99994 12.2416C5.25991 11.7471 4.68314 11.0443 4.34254 10.2221C4.00195 9.39981 3.91284 8.49501 4.08647 7.62209C4.2601 6.74918 4.68869 5.94736 5.31802 5.31802C5.94736 4.68868 6.74918 4.2601 7.6221 4.08647C8.49501 3.91283 9.39981 4.00195 10.2221 4.34254C11.0443 4.68314 11.7471 5.25991 12.2416 5.99993C12.7361 6.73995 13 7.60998 13 8.5C13 9.69347 12.5259 10.8381 11.682 11.682C10.8381 12.5259 9.69348 13 8.5 13Z" fill="#66789C"/>
<path d="M10.215 9.5C10.368 9.23435 10.4579 8.93708 10.4778 8.63115C10.4976 8.32522 10.4468 8.01883 10.3294 7.73564C10.212 7.45246 10.031 7.20006 9.80051 6.99794C9.57 6.79583 9.29612 6.64941 9.00001 6.57V5C9.00001 4.86739 8.94733 4.74021 8.85356 4.64645C8.7598 4.55268 8.63262 4.5 8.50001 4.5C8.3674 4.5 8.24023 4.55268 8.14646 4.64645C8.05269 4.74021 8.00001 4.86739 8.00001 5V6.57C7.71552 6.6334 7.44832 6.75822 7.21713 6.93572C6.98593 7.11321 6.79633 7.3391 6.66159 7.59756C6.52685 7.85602 6.45023 8.1408 6.43709 8.43198C6.42396 8.72316 6.47462 9.01369 6.58554 9.28323C6.69647 9.55277 6.86496 9.79481 7.07924 9.9924C7.29351 10.19 7.54839 10.3384 7.82601 10.4271C8.10364 10.5159 8.39732 10.5429 8.68648 10.5062C8.97564 10.4696 9.2533 10.3702 9.50001 10.215L10.61 11.33C10.6565 11.3769 10.7118 11.4141 10.7727 11.4394C10.8337 11.4648 10.899 11.4779 10.965 11.4779C11.031 11.4779 11.0964 11.4648 11.1573 11.4394C11.2182 11.4141 11.2735 11.3769 11.32 11.33C11.3669 11.2835 11.4041 11.2282 11.4295 11.1673C11.4548 11.1064 11.4679 11.041 11.4679 10.975C11.4679 10.909 11.4548 10.8436 11.4295 10.7827C11.4041 10.7218 11.3669 10.6665 11.32 10.62L10.215 9.5ZM7.50001 8.5C7.50001 8.23478 7.60537 7.98043 7.7929 7.79289C7.98044 7.60536 8.23479 7.5 8.50001 7.5C8.76523 7.5 9.01958 7.60536 9.20712 7.79289C9.39465 7.98043 9.50001 8.23478 9.50001 8.5C9.49889 8.76479 9.39281 9.01832 9.20501 9.205C9.01834 9.39279 8.7648 9.49888 8.50001 9.5C8.23479 9.5 7.98044 9.39464 7.7929 9.20711C7.60537 9.01957 7.50001 8.76522 7.50001 8.5Z" fill="#66789C"/>
</svg>
